<?xml version="1.0" encoding="UTF-8" standalone="no"?>
<!DOCTYPE svg PUBLIC "-//W3C//DTD SVG 1.1//EN" "http://www.w3.org/Graphics/SVG/1.1/DTD/svg11.dtd">
<svg width="100%" height="100%" viewBox="0 0 1300 900" version="1.1" xmlns="http://www.w3.org/2000/svg" xmlns:xlink="http://www.w3.org/1999/xlink" xml:space="preserve" xmlns:serif="http://www.serif.com/" style="fill-rule:evenodd;clip-rule:evenodd;stroke-miterlimit:10;">
    <g id="background" transform="matrix(1,0,0,1,-150,-150)">
        <g transform="matrix(1,0,0,1,-66.8693,44.7762)">
            <path d="M1256.6,884.3C1237.9,865 1223.6,841.9 1214.8,816.5C1214.5,817.1 1214.1,817.7 1213.8,818.3C1216.1,817.8 1218.3,817.4 1220.6,816.9C1221.9,816.6 1222.1,814.8 1221,814.2C1212.4,809.6 1211.4,794.8 1209.5,786.3C1207,775.2 1204.7,764.1 1202.7,753C1198.5,730.2 1195.3,707.2 1193,684.1C1192.2,684.5 1191.5,685 1190.7,685.4C1207.4,695.3 1223.3,706.4 1238.2,718.9C1251.6,730.2 1265,742.3 1274.5,757.1C1284.7,772.8 1289.6,791.8 1292.6,810C1296,830.1 1296,850.6 1291.2,870.5C1290.7,872.4 1293.6,873.2 1294.1,871.3C1301.6,841 1297.8,808.7 1288.2,779.3C1278.9,751.2 1257.9,730.9 1235.4,712.7C1221.8,701.7 1207.3,691.7 1192.3,682.8C1191.4,682.3 1189.9,682.9 1190,684.1C1192.4,708.8 1195.9,733.3 1200.5,757.6C1202.8,769.7 1205.3,781.8 1208.2,793.7C1210.1,801.8 1211.4,812.4 1219.5,816.8C1219.6,815.9 1219.7,815 1219.9,814.1C1217.6,814.6 1215.4,815 1213.1,815.5C1212.3,815.7 1211.8,816.6 1212.1,817.3C1221.1,843.2 1235.6,866.7 1254.7,886.4C1255.9,887.8 1258,885.7 1256.6,884.3Z" style="fill:rgb(50,50,50);fill-rule:nonzero;"/>
        </g>
        <g transform="matrix(1,0,0,1,-66.8693,44.7762)">
            <path d="M1193.3,686.6C1229.5,739 1254.5,798.6 1266.5,861.1C1266.9,863 1269.8,862.2 1269.4,860.3C1257.3,797.5 1232.2,737.6 1195.8,685C1194.8,683.5 1192.2,685 1193.3,686.6Z" style="fill:rgb(50,50,50);fill-rule:nonzero;"/>
        </g>
        <g transform="matrix(1,0,0,1,-66.8693,44.7762)">
            <path d="M1205.3,772.8C1220.4,776.1 1236.3,779.8 1246.8,792.1C1248,793.6 1250.2,791.4 1248.9,790C1238.1,777.3 1221.7,773.3 1206.1,769.9C1204.2,769.5 1203.4,772.4 1205.3,772.8Z" style="fill:rgb(50,50,50);fill-rule:nonzero;"/>
        </g>
        <g transform="matrix(1,0,0,1,-66.8693,44.7762)">
            <path d="M1245.1,773C1244,759 1246.2,745.1 1251.8,732.2C1252.6,730.4 1250,728.9 1249.2,730.7C1243.4,744.1 1240.9,758.4 1242.1,773C1242.3,774.9 1245.3,774.9 1245.1,773Z" style="fill:rgb(50,50,50);fill-rule:nonzero;"/>
        </g>
        <g transform="matrix(1,0,0,1,-66.8693,44.7762)">
            <path d="M1269.2,745.5C1276.4,700.7 1307.1,665.9 1336.5,633.4C1335.7,632.9 1334.8,632.4 1334,631.9C1327.1,656.6 1343.3,679.5 1349.2,702.7C1352.4,715.5 1353.9,728.7 1354.2,741.9C1354.4,748.4 1354.3,755 1354.1,761.5C1354,764.7 1354,768 1353.3,771.1C1352.3,775.4 1347.5,782.1 1342.4,777.6C1341.8,778.4 1341.2,779.2 1340.6,780C1349.4,784.6 1346.2,797.8 1344.8,805.5C1343,815.9 1340,825.8 1333.3,834.2C1323.6,846.2 1309.7,855.1 1305.1,870.5C1304.5,872.4 1307.4,873.1 1308,871.3C1313.7,852.5 1333.8,843.5 1342.1,826.1C1346.4,817.1 1348.3,806.5 1349.2,796.7C1349.9,789.6 1349.2,781.1 1342.1,777.5C1340.7,776.8 1338.9,778.7 1340.3,779.9C1343.4,782.7 1347.7,782.7 1351.2,780.4C1355.1,777.8 1356.3,773 1356.7,768.5C1358.3,753.4 1357.6,737.5 1355.8,722.5C1354,707.5 1350,693.4 1344.4,679.5C1338.5,664.7 1332.4,649 1336.9,632.9C1337.3,631.5 1335.4,630.3 1334.4,631.4C1304.7,664.3 1273.6,699.6 1266.3,744.8C1266,746.6 1268.9,747.4 1269.2,745.5Z" style="fill:rgb(50,50,50);fill-rule:nonzero;"/>
        </g>
        <g transform="matrix(1,0,0,1,-66.8693,44.7762)">
            <path d="M1330.6,642.1C1309.8,693.4 1296.9,747.6 1292.3,802.8C1292.1,804.7 1295.1,804.7 1295.3,802.8C1299.9,747.9 1312.8,694 1333.5,642.9C1334.2,641.2 1331.3,640.4 1330.6,642.1Z" style="fill:rgb(50,50,50);fill-rule:nonzero;"/>
        </g>
        <g transform="matrix(1,0,0,1,-66.8693,44.7762)">
            <path d="M1044.8,799.2C1069.3,804.5 1093.2,792.7 1116.8,788C1142.8,782.9 1169.6,782.9 1195.7,787.6C1197.6,787.9 1198.4,785.1 1196.5,784.7C1172.3,780.3 1147.6,780 1123.4,783.8C1111,785.8 1099,789.2 1087,792.6C1073.5,796.3 1059.6,799.3 1045.7,796.3C1043.7,795.9 1042.9,798.7 1044.8,799.2Z" style="fill:rgb(50,50,50);fill-rule:nonzero;"/>
        </g>
        <g transform="matrix(1,0,0,1,-66.8693,44.7762)">
            <path d="M1351,790C1365.2,787.3 1379.2,790.7 1392.9,794.1C1406.3,797.3 1419.8,800.2 1433.5,802.6C1459.9,807.2 1486.7,809.9 1513.5,811C1515.4,811.1 1515.4,808.1 1513.5,808C1485,806.9 1456.7,803.8 1428.6,798.7C1415,796.2 1401.6,793.1 1388.2,789.9C1375.7,786.9 1363,784.7 1350.2,787.2C1348.4,787.5 1349.2,790.4 1351,790Z" style="fill:rgb(50,50,50);fill-rule:nonzero;"/>
        </g>
        <g transform="matrix(1,0,0,1,-66.8693,44.7762)">
            <path d="M220.7,706.2C256.1,698 291.5,688.5 327.4,683.3C363.2,678.2 399.5,677.6 435.6,680.7C505,686.7 572.4,704.9 640.4,719C677.9,726.8 715.8,733.2 754.1,735.8C756,735.9 756,732.9 754.1,732.8C683.9,728 615.7,710.1 547.1,695.5C478.9,681.1 409.5,670.7 339.7,678.7C299.2,683.4 259.6,694.1 219.9,703.3C218,703.7 218.8,706.6 220.7,706.2Z" style="fill:rgb(50,50,50);fill-rule:nonzero;"/>
        </g>
        <g transform="matrix(1,0,0,1,-66.8693,44.7762)">
            <path d="M504.7,686.6C563.4,681.5 620.9,667.7 677.8,652.9C736,637.7 794.2,622.3 852.4,606.9C910.5,591.6 968.5,575.9 1026.8,561C1055.8,553.6 1085.1,546.9 1114.9,544.1C1143.6,541.4 1172.6,541.8 1201.3,544.5C1268.3,550.7 1333.5,568.6 1398.2,586.4C1400.1,586.9 1400.9,584 1399,583.5C1342.1,567.8 1284.9,552.1 1226.2,544.3C1197,540.4 1167.4,538.4 1137.9,539.6C1108.9,540.7 1080.3,545.3 1052,551.7C1023.2,558.3 994.7,566.2 966.1,573.8C936.9,581.5 907.7,589.2 878.5,596.9C819.5,612.4 760.4,628 701.4,643.5C636.7,660.5 571.6,677.7 504.7,683.5C502.8,683.8 502.8,686.8 504.7,686.6Z" style="fill:rgb(50,50,50);fill-rule:nonzero;"/>
        </g>
        <g transform="matrix(1,0,0,1,-66.8693,44.7762)">
            <path d="M343.6,866.4C368,867.3 392.5,868.2 416.9,869.1C440.7,870 464.6,871.4 488.4,871.6C511.6,871.8 534,867.3 556.8,863.2C580.6,858.9 604.7,855.8 628.8,854.1C655.7,852.1 682.7,851.8 709.6,852.9C711.5,853 711.5,850 709.6,849.9C662.4,847.9 615.1,850.6 568.5,858.2C544.7,862.1 521.1,868.1 497,868.6C473.4,869.2 449.5,867.4 425.9,866.5C398.5,865.5 371.1,864.5 343.7,863.5C341.7,863.3 341.7,866.3 343.6,866.4Z" style="fill:rgb(50,50,50);fill-rule:nonzero;"/>
        </g>
        <g transform="matrix(1,0,0,1,-66.8693,44.7762)">
            <path d="M294.5,997.4C296,998.5 297.5,999.5 299,1000.6C300.4,1001.6 302,999.4 300.8,998.2C296.2,993.4 291.7,988.7 287.1,983.9C285,981.7 282.5,979.7 280.8,977.2C278.2,973.4 280.9,971.6 281.5,968.5C282.2,965.3 279,963.5 277.2,961.5C273.2,957.2 270.6,951.8 268.6,946.3C260.3,923.6 257.4,898 256.6,874C256.1,874.5 255.6,875 255.1,875.5C280.3,873.2 294.9,897 303.3,917.1C312.7,939.4 321.3,962.7 322.4,987.2C322.5,989.1 325.5,989.1 325.4,987.2C324.2,961 314.8,935.6 304.2,911.8C295.4,891.9 279.5,870.2 255,872.4C254.2,872.5 253.5,873 253.5,873.9C254,886.8 255.2,899.6 257.3,912.3C259.4,924.7 261.8,937.5 266.4,949.2C268.1,953.5 270.2,957.6 273,961.2C275,963.7 278.4,965.9 277.2,969.6C276.7,971.1 275.7,971.9 275.8,973.7C276,978.1 280.8,981.7 283.5,984.5C288.5,989.7 293.6,995 298.6,1000.2C299.2,999.4 299.8,998.6 300.4,997.8C298.9,996.7 297.4,995.7 295.9,994.6C294.4,993.7 292.9,996.3 294.5,997.4Z" style="fill:rgb(50,50,50);fill-rule:nonzero;"/>
        </g>
        <g transform="matrix(1,0,0,1,-66.8693,44.7762)">
            <path d="M313.1,929.3C321.8,906.5 337.1,886.6 357,872.5C356.3,872.3 355.6,872.1 354.9,872C360.5,884.8 364.3,898.2 366.3,912C366.6,911.4 367,910.8 367.3,910.2C364.9,910.9 362.5,911.6 360,912.3C359,912.6 358.7,913.6 359.1,914.5C361.9,921.2 365,928.8 361.9,935.9C359.3,941.8 353.7,946.2 349.8,951.1C342.7,959.9 337.2,969.7 333,980.1C332.3,981.9 335.2,982.7 335.9,980.9C341.5,966.8 349.9,955.6 359.8,944.3C363.4,940.2 366.1,935.7 366.3,930.1C366.5,924.1 364,918.4 361.7,913C361.4,913.7 361.1,914.5 360.8,915.2C363.2,914.5 365.6,913.8 368.1,913.1C368.9,912.9 369.3,912.1 369.1,911.3C367,897.2 363.1,883.6 357.4,870.5C357.1,869.8 356,869.5 355.3,870C334.7,884.7 319,905 310,928.6C309.6,930.3 312.4,931.1 313.1,929.3Z" style="fill:rgb(50,50,50);fill-rule:nonzero;"/>
        </g>
        <g transform="matrix(1,0,0,1,-66.8693,44.7762)">
            <path d="M265.5,890.2C291,919.5 307.6,956 312.7,994.5C313,996.4 316,996.4 315.7,994.5C310.4,955.1 293.7,918 267.6,888C266.3,886.6 264.2,888.7 265.5,890.2Z" style="fill:rgb(50,50,50);fill-rule:nonzero;"/>
        </g>
        <g transform="matrix(1,0,0,1,-66.8693,44.7762)">
            <path d="M326.7,960.9C331.4,944.3 338,928.4 346.5,913.3C347.4,911.6 344.9,910.1 343.9,911.8C335.3,927.1 328.6,943.3 323.8,960.1C323.2,962 326.1,962.8 326.7,960.9Z" style="fill:rgb(50,50,50);fill-rule:nonzero;"/>
        </g>
        <g transform="matrix(1,0,0,1,-66.8693,44.7762)">
            <path d="M266.5,835.7C301.5,828.9 337.3,826.3 372.5,833C388.9,836.1 405.1,839.7 421.7,841.6C439.2,843.6 456.9,844.4 474.5,845.1C476.4,845.2 476.4,842.2 474.5,842.1C456.9,841.3 439.2,840.6 421.7,838.6C403.5,836.5 385.7,832.2 367.6,829.1C333.8,823.3 299.1,826.4 265.7,832.9C263.8,833.2 264.6,836.1 266.5,835.7Z" style="fill:rgb(50,50,50);fill-rule:nonzero;"/>
        </g>
        <g transform="matrix(1,0,0,1,-66.8693,44.7762)">
            <path d="M398.4,954.6C418.4,951.4 438.4,948.1 458.6,946.9C479.1,945.7 498.9,947.4 519,951.1C537.4,954.5 555.2,956.1 574,955.7C593.5,955.2 613.2,954.3 632.2,959.4C634.1,959.9 634.9,957 633,956.5C614.6,951.5 595.7,952.1 576.8,952.6C566.8,952.9 556.7,953 546.7,952.2C536.4,951.4 526.2,949.3 516.1,947.5C496.7,944 477.4,942.7 457.6,943.9C437.5,945.2 417.5,948.4 397.6,951.6C395.7,952 396.5,954.9 398.4,954.6Z" style="fill:rgb(50,50,50);fill-rule:nonzero;"/>
        </g>
        <g transform="matrix(1,0,0,1,-66.8693,44.7762)">
            <path d="M948.1,978.5C985.6,973.1 1023.3,969.9 1061.2,969.1C1098.1,968.3 1135,969.8 1171.9,970.6C1173.8,970.6 1173.8,967.6 1171.9,967.6C1134.4,966.8 1096.8,965.3 1059.2,966.2C1021.7,967.1 984.4,970.3 947.3,975.6C945.4,975.9 946.2,978.7 948.1,978.5Z" style="fill:rgb(50,50,50);fill-rule:nonzero;"/>
        </g>
        <g transform="matrix(1,0,0,1,-66.8693,44.7762)">
            <path d="M1114.3,1000C1128.6,993.9 1144,1001.3 1158.7,1000.6C1161.8,1000.4 1165,1000 1168,999C1172.1,997.6 1175.9,995.4 1180.3,995.2C1187.9,994.8 1195,997.7 1202.6,996.5C1204.5,996.2 1203.7,993.3 1201.8,993.6C1193.3,995 1185,990.8 1176.6,992.7C1172.8,993.5 1169.4,995.5 1165.7,996.6C1161.9,997.6 1158,997.8 1154.1,997.7C1140.2,997.1 1126.3,991.8 1112.7,997.6C1111.1,998.1 1112.6,1000.7 1114.3,1000Z" style="fill:rgb(50,50,50);fill-rule:nonzero;"/>
        </g>
        <g transform="matrix(1,0,0,1,-66.8693,44.7762)">
            <path d="M1316.6,889.5C1341.8,882 1367,882.2 1392.8,885.3C1417.1,888.2 1441.6,892 1466,887.7C1467.9,887.4 1467.1,884.5 1465.2,884.8C1439.8,889.3 1414.3,884.7 1389,881.9C1364.1,879.1 1339.8,879.4 1315.7,886.7C1314,887.2 1314.7,890.1 1316.6,889.5Z" style="fill:rgb(50,50,50);fill-rule:nonzero;"/>
        </g>
        <g transform="matrix(1,0,0,1,-66.8693,44.7762)">
            <path d="M1216.1,317.7C1197.5,307.7 1185.4,288.3 1188.2,266.8C1190.7,247.1 1206.5,230.1 1225.8,225.5C1245.5,220.9 1267.5,230.2 1278.2,247.3C1289.7,265.6 1287.2,289.8 1273.1,306C1257.1,324.4 1229.1,327.2 1208.9,314.2C1207.3,313.1 1205.8,315.7 1207.4,316.8C1226.2,329 1252.2,328.2 1269.6,313.7C1286.9,299.3 1293.3,274.3 1284.7,253.4C1276.5,233.5 1255.5,220.5 1234,221.4C1212.8,222.4 1193.6,237.7 1187.2,257.8C1179.2,282.7 1192.6,308.3 1214.7,320.2C1216.3,321.2 1217.8,318.6 1216.1,317.7Z" style="fill:rgb(50,50,50);fill-rule:nonzero;"/>
        </g>
        <g transform="matrix(1,0,0,1,-66.8693,44.7762)">
            <path d="M353,536.4C363.2,527.3 377.5,533.5 385.1,542.7C389,547.4 391.3,552.7 394.3,557.9C396.2,561.4 399,564.9 403.2,565.7C406.5,566.3 409.2,565.1 411.4,562.7C412.8,561.1 413.7,559 415.1,557.4C418.1,553.9 422,554.3 425.2,557.1C432.2,563.2 432.5,578.3 444.8,577.2C446.7,577 446.7,574 444.8,574.2C432,575.4 433.5,553.9 421.2,551.8C417.6,551.2 414.7,552.8 412.5,555.6C411.1,557.4 410.2,559.9 408.4,561.4C403.2,565.7 398.6,559.7 396.5,555.6C391.4,546.2 386.4,536.4 376.3,531.5C368,527.5 357.9,527.9 350.9,534.2C349.5,535.5 351.6,537.7 353,536.4Z" style="fill:rgb(50,50,50);fill-rule:nonzero;"/>
        </g>
        <g transform="matrix(1,0,0,1,-66.8693,44.7762)">
            <path d="M1026.1,401.8C1024.1,396.4 1021.7,390 1025.3,384.7C1028.6,380 1034.2,382.4 1038.9,380.9C1045.1,378.9 1048.9,372.8 1050.6,366.9C1052.6,360 1050.2,351 1054.3,344.9C1059.3,337.4 1070.1,346.6 1076.9,342C1078.5,340.9 1077,338.3 1075.4,339.4C1068.5,344.1 1059.1,334.5 1052.6,342.2C1047.4,348.3 1049.8,357.6 1048.1,364.8C1046.9,369.8 1044.2,375.1 1039.5,377.5C1035.4,379.6 1030.7,377.5 1026.6,379.6C1017.8,384.1 1020.6,395.3 1023.3,402.6C1023.8,404.3 1026.7,403.6 1026.1,401.8Z" style="fill:rgb(50,50,50);fill-rule:nonzero;"/>
        </g>
        <g transform="matrix(1,0,0,1,-66.8693,44.7762)">
            <path d="M1036.9,331.7C1035,326.7 1036.1,321 1039.8,317C1044.4,312 1049.7,314 1055.4,312C1058.8,310.8 1060.8,307.9 1062.1,304.7C1062.9,302.7 1063.4,300.6 1064.1,298.6C1064.7,297 1065.4,295.2 1066.6,294C1068.4,292.3 1072.7,290.9 1073.8,294.7C1074.4,296.5 1077.2,295.8 1076.7,293.9C1075.4,289.7 1070.5,288.2 1066.7,290.2C1059.5,293.9 1062.1,304.9 1055.4,308.6C1051.7,310.6 1047.1,309.4 1043.2,311C1040.7,312.1 1038.5,313.9 1036.8,316C1033.1,320.7 1031.9,326.9 1034,332.5C1034.6,334.3 1037.5,333.5 1036.9,331.7Z" style="fill:rgb(50,50,50);fill-rule:nonzero;"/>
        </g>
        <g transform="matrix(1,0,0,1,-66.8693,44.7762)">
            <path d="M1121.1,438.5C1118.1,434.2 1119,428.1 1122.9,424.5C1127.4,420.3 1133.9,422.2 1137,427C1144.1,437.7 1128.4,447.1 1120.9,438.2C1119.6,436.7 1117.5,438.9 1118.8,440.3C1123.1,445.4 1131.1,446 1136.6,442.4C1142.8,438.4 1143.3,430.3 1139,424.6C1134.8,419 1127,417.1 1121.4,421.7C1116.1,426 1114.5,434.2 1118.5,439.9C1119.6,441.6 1122.2,440.1 1121.1,438.5Z" style="fill:rgb(50,50,50);fill-rule:nonzero;"/>
        </g>
        <g transform="matrix(1,0,0,1,-66.8693,44.7762)">
            <path d="M1132.4,455.1C1129.6,451.2 1126.1,446.5 1127.3,441.5C1129.1,434.1 1137.9,436 1141.9,440.4C1145.2,444.1 1146.4,449.9 1142.2,453.4C1139,456.1 1134.1,456.6 1131.2,453.4C1129.9,452 1127.8,454.1 1129.1,455.5C1133.1,459.8 1139.9,459.4 1144.2,455.7C1149.3,451.3 1148.7,444 1144.7,439.1C1140.7,434.1 1131.6,430.5 1126.6,436.2C1121,442.6 1125.7,450.9 1129.8,456.6C1130.9,458.2 1133.5,456.7 1132.4,455.1Z" style="fill:rgb(50,50,50);fill-rule:nonzero;"/>
        </g>
        <g transform="matrix(1,0,0,1,-66.8693,44.7762)">
            <path d="M459.9,663.5C471.1,666.9 482.5,668.9 494.1,669.3C496,669.4 496,666.4 494.1,666.3C482.7,665.9 471.5,664 460.7,660.6C458.8,660 458,662.9 459.9,663.5Z" style="fill:rgb(50,50,50);fill-rule:nonzero;"/>
        </g>
        <g transform="matrix(1,0,0,1,-66.8693,44.7762)">
            <path d="M1209.9,583.5C1277.9,583 1341.9,608.4 1406.1,627.2C1424.5,632.6 1443.1,637.5 1461.9,641.2C1463.8,641.6 1464.6,638.7 1462.7,638.3C1396,625.1 1333.1,596.8 1266,585.3C1247.5,582.1 1228.7,580.3 1209.9,580.5C1208,580.5 1208,583.5 1209.9,583.5Z" style="fill:rgb(50,50,50);fill-rule:nonzero;"/>
        </g>
        <g transform="matrix(1,0,0,1,-66.8693,44.7762)">
            <path d="M541.4,149.9C544.9,158.3 549.2,176.9 561.8,168.6C566,165.9 572.2,158 576.7,164.4C579.4,168.2 579.6,173.2 584.7,174.9C586.5,175.5 587.3,172.6 585.5,172C580.8,170.4 580.8,163.2 577,160.3C574.5,158.4 571.4,158.5 568.7,159.9C564.7,161.8 561.8,166.1 557.6,167.5C550.1,170 546.3,153.9 544.3,149.1C543.5,147.4 540.6,148.1 541.4,149.9Z" style="fill:rgb(50,50,50);fill-rule:nonzero;"/>
        </g>
        <g transform="matrix(1,0,0,1,-66.8693,44.7762)">
            <path d="M572.5,151.7C578.1,147.4 586.3,149.4 589.1,155.9C590.8,160 592.1,162.4 596.9,162.7C599.2,162.8 601.7,162 604,162.4C608.8,163.2 608.8,167.4 609.6,171.3C610.4,175.2 612.2,178.6 616.4,179.1C618.3,179.3 618.3,176.3 616.4,176.1C610.9,175.5 613.2,164.2 608.9,161C604.3,157.6 597.4,162.1 593.8,157.9C592.1,155.9 591.6,153.2 589.8,151.2C588.4,149.5 586.5,148.3 584.4,147.5C579.9,145.7 574.9,146.3 571.1,149.2C569.4,150.3 570.9,152.9 572.5,151.7Z" style="fill:rgb(50,50,50);fill-rule:nonzero;"/>
        </g>
        <g transform="matrix(1,0,0,1,-66.8693,44.7762)">
            <path d="M662.5,246C668.8,247.3 675.5,243.3 677.2,236.9C678.8,230.9 674.9,225.2 669.2,223.3C655.9,218.8 648.5,237.1 659.3,244.6C660.9,245.7 662.4,243.1 660.8,242C653.2,236.7 657.9,223.4 667.6,225.9C671.8,227 675.3,230.8 674.5,235.3C673.6,240.4 668.4,244.1 663.3,243C661.4,242.7 660.6,245.6 662.5,246Z" style="fill:rgb(50,50,50);fill-rule:nonzero;"/>
        </g>
        <g transform="matrix(1,0,0,1,-66.8693,44.7762)">
            <path d="M672.2,251.1C669.8,249.2 666.9,247.1 665.9,244C664.5,239.8 668.5,234.8 673.2,236C676.5,236.9 678.8,240.7 678,244.1C677,247.9 672.7,249.8 669.1,248.9C667.2,248.4 666.4,251.3 668.3,251.8C673.2,253 678.6,250.7 680.6,245.9C682.5,241.2 679.9,235.5 675.3,233.5C670.7,231.6 665.4,234.1 663.4,238.5C660.6,244.6 665.7,249.7 670.2,253.2C671.5,254.4 673.7,252.3 672.2,251.1Z" style="fill:rgb(50,50,50);fill-rule:nonzero;"/>
        </g>
        <g transform="matrix(1,0,0,1,-66.8693,44.7762)">
            <path d="M472.7,448.6C468.1,444.5 467.2,438.3 471.7,433.7C475.6,429.8 481.4,429.9 485.1,434C492.8,442.6 481.7,453.8 472.6,447.9C471,446.8 469.5,449.4 471.1,450.5C476.5,454 483.9,452.8 488.1,448C492.4,443 491.1,435.5 486.5,431.1C481.6,426.5 474.3,426.8 469.6,431.5C463.9,437.2 464.8,445.5 470.6,450.7C472,452 474.1,449.9 472.7,448.6Z" style="fill:rgb(50,50,50);fill-rule:nonzero;"/>
        </g>
        <g transform="matrix(1,0,0,1,-66.8693,44.7762)">
            <path d="M899,165.9C904.8,153.2 912.9,141.9 922.9,132.2C924.3,130.9 922.2,128.7 920.8,130.1C910.6,140 902.4,151.5 896.4,164.5C895.6,166.1 898.2,167.7 899,165.9Z" style="fill:rgb(50,50,50);fill-rule:nonzero;"/>
        </g>
        <g transform="matrix(1,0,0,1,-66.8693,44.7762)">
            <path d="M911.5,163.9C917.5,156.5 924.2,149.6 931.4,143.3C932.9,142 930.7,139.9 929.3,141.2C922.1,147.5 915.5,154.4 909.4,161.8C908.2,163.3 910.3,165.4 911.5,163.9Z" style="fill:rgb(50,50,50);fill-rule:nonzero;"/>
        </g>
        <g transform="matrix(1,0,0,1,-66.8693,44.7762)">
            <path d="M919.1,172.9C921.8,170.6 924.5,168.4 927.2,166.1C928.7,164.9 926.5,162.7 925.1,164C922.4,166.3 919.7,168.5 917,170.8C915.5,172 917.6,174.1 919.1,172.9Z" style="fill:rgb(50,50,50);fill-rule:nonzero;"/>
        </g>
    </g>
    <g id="color" transform="matrix(1,0,0,1,-150,-150)">
        <g transform="matrix(1,0,0,1,-417.269,30.7762)">
            <circle cx="1053.9" cy="195.7" r="8.7" style="fill:rgb(209,1,76);"/>
        </g>
        <g transform="matrix(1,0,0,1,-66.8693,44.7762)">
            <circle cx="593" cy="581.6" r="10.7" style="fill:rgb(209,1,76);"/>
        </g>
        <g transform="matrix(1,0,0,1,-66.8693,44.7762)">
            <circle cx="610.4" cy="615.7" r="5.9" style="fill:rgb(209,1,76);"/>
        </g>
        <g transform="matrix(1,0,0,1,-66.8693,44.7762)">
            <path d="M714.6,460.1C715.5,468.8 718.3,476.5 728.2,476.3C731.6,476.3 734.5,475.3 737.1,477.9C739.5,480.3 738.8,482.7 739.8,485.7C740.3,487.2 741,488.6 742.4,489.6C744.2,490.9 751,490.9 750.4,493.9C750,495.8 752.9,496.6 753.3,494.7C754,491.3 751.7,489.3 748.5,488.4C743.9,487.1 742.8,485.3 742.1,481.2C741.8,479.3 741.4,477.4 740.1,475.8C737.5,472.7 733.3,473.1 729.7,473.2C725.8,473.4 722.1,473.1 720,469.3C718.4,466.5 718,463.1 717.7,460C717.4,458.2 714.4,458.2 714.6,460.1Z" style="fill:rgb(209,1,76);fill-rule:nonzero;"/>
        </g>
        <g transform="matrix(1,0,0,1,-66.8693,44.7762)">
            <path d="M724.8,496.9C730,491.4 736.2,497 737.8,502.5C738.5,504.7 738.6,506.8 740.2,508.5C743.8,512.5 750.4,510.3 753.7,514.5C754.9,516 757,513.9 755.8,512.4C753.6,509.6 750.5,509.2 747.2,508.5C744.1,507.8 742.4,506.7 741.2,503.6C740.4,501.7 740.3,499.7 739.2,497.8C735.8,491.7 727.8,489.3 722.7,494.7C721.3,496.2 723.4,498.3 724.8,496.9Z" style="fill:rgb(209,1,76);fill-rule:nonzero;"/>
        </g>
        <g transform="matrix(1,0,0,1,-66.8693,44.7762)">
            <path d="M1080,486.8C1078.1,483.2 1082.1,480.5 1085.1,482.7C1086,483.3 1087.4,482.5 1087.4,481.4C1087.1,478 1090.5,475.5 1093.7,476.7C1095.5,477.4 1096.3,474.5 1094.5,473.8C1089.5,471.9 1084,476.1 1084.4,481.4C1085.2,481 1085.9,480.5 1086.7,480.1C1081,476 1074.3,482.3 1077.5,488.3C1078.3,490 1080.9,488.5 1080,486.8Z" style="fill:rgb(209,1,76);fill-rule:nonzero;"/>
        </g>
        <g transform="matrix(1,0,0,1,-66.8693,44.7762)">
            <path d="M1097,485.2C1096.3,483.5 1101.1,483.2 1101.9,483.2C1104.4,483.3 1106.8,483.7 1109.3,483.9C1111.2,484.1 1111.2,481.1 1109.3,480.9C1105.4,480.5 1101,479.4 1097.2,481C1094.7,482.1 1093.3,484.1 1094.4,486.7C1095.1,488.5 1097.7,486.9 1097,485.2Z" style="fill:rgb(209,1,76);fill-rule:nonzero;"/>
        </g>
        <g transform="matrix(1,0,0,1,-66.8693,44.7762)">
            <circle cx="575.9" cy="593.4" r="11.8" style="fill:rgb(236,97,91);"/>
        </g>
        <g transform="matrix(1,0,0,1,-66.8693,44.7762)">
            <circle cx="687.6" cy="147" r="15.9" style="fill:rgb(255,0,92);"/>
        </g>
        <g transform="matrix(1,0,0,1,-66.8693,44.7762)">
            <circle cx="399.4" cy="757.5" r="20.1" style="fill:rgb(255,0,92);"/>
        </g>
        <g transform="matrix(1,0,0,1,-66.8693,44.7762)">
            <circle cx="1085.5" cy="696.4" r="10.3" style="fill:rgb(236,97,91);"/>
        </g>
        <g transform="matrix(0.647512,0.117983,-0.117983,0.647512,265.047,15.9983)">
            <path d="M1082.54,69.029C1082.54,74.789 1081.49,79.877 1079.37,84.293C1077.26,88.709 1074.57,92.645 1071.31,96.101C1068.05,99.557 1064.54,102.773 1060.8,105.749C1057.05,108.725 1053.55,111.605 1050.29,114.389C1047.02,117.173 1044.33,120.101 1042.22,123.173C1040.11,126.245 1039.05,129.701 1039.05,133.541C1039.05,141.029 1040.68,149.573 1043.95,159.173C1044.53,160.901 1044.81,162.053 1044.81,162.629C1044.81,164.165 1044.14,165.557 1042.8,166.805C1041.45,168.053 1038.77,169.253 1034.73,170.405C1018.61,152.357 1010.54,137.669 1010.54,126.341C1010.54,120.965 1011.69,116.165 1014,111.941C1016.3,107.717 1019.13,103.877 1022.49,100.421C1025.85,96.965 1029.5,93.701 1033.44,90.629C1037.37,87.557 1041.02,84.485 1044.38,81.413C1047.74,78.341 1050.57,75.221 1052.88,72.053C1055.18,68.885 1056.33,65.381 1056.33,61.541C1056.33,54.821 1054.56,49.637 1051.01,45.989C1047.45,42.341 1043.28,40.517 1038.48,40.517C1034.44,40.517 1031.09,41.957 1028.4,44.837C1025.71,47.717 1023.5,51.845 1021.77,57.221C1021.2,59.909 1019.18,61.253 1015.73,61.253C1013.61,61.253 1011.17,61.061 1008.38,60.677C1005.6,60.293 1003,59.765 1000.61,59.093C998.205,58.421 996.189,57.557 994.557,56.501C992.925,55.445 992.109,54.245 992.109,52.901C992.109,49.637 993.069,46.421 994.989,43.253C996.909,40.085 999.693,37.253 1003.34,34.757C1006.99,32.261 1011.45,30.245 1016.73,28.709C1022.01,27.173 1028.11,26.405 1035.02,26.405C1042.89,26.405 1049.81,27.749 1055.76,30.437C1061.71,33.125 1066.65,36.533 1070.59,40.661C1074.53,44.789 1077.5,49.349 1079.52,54.341C1081.53,59.333 1082.54,64.229 1082.54,69.029ZM1016.59,199.205C1016.59,193.445 1018.56,188.549 1022.49,184.517C1026.43,180.485 1031.28,178.469 1037.04,178.469C1042.61,178.469 1047.36,180.485 1051.29,184.517C1055.23,188.549 1057.2,193.445 1057.2,199.205C1057.2,205.157 1055.23,210.149 1051.29,214.181C1047.36,218.213 1042.61,220.229 1037.04,220.229C1031.28,220.229 1026.43,218.213 1022.49,214.181C1018.56,210.149 1016.59,205.157 1016.59,199.205Z" style="fill:rgb(255,0,92);fill-rule:nonzero;"/>
        </g>
    </g>
    <g id="legs" transform="matrix(1,0,0,1,-150,-150)">
        <g transform="matrix(1,0,0,1,-66.8693,44.7762)">
            <path d="M970.9,941C992.1,935.9 1013.4,930.7 1034.6,925.6C1048.2,926.6 1068.4,926.9 1092.4,922.9C1115.2,919.1 1158.9,908.4 1158.6,896.6C1158.4,888.8 1138.9,883.2 1106.7,873.9C1085.4,867.8 1067.5,864.2 1055.6,862.1C1042.4,868.6 1028.2,875 1012.9,881.1C992.2,889.4 972.5,895.9 954.2,901C959.7,914.4 965.3,927.7 970.9,941Z" style="fill:rgb(50,50,50);fill-rule:nonzero;stroke:black;stroke-width:3px;"/>
        </g>
        <g transform="matrix(1,0,0,1,-66.8693,44.7762)">
            <path d="M918.5,920.7C939.7,915.6 961,910.4 982.2,905.3C995.8,906.3 1016,906.6 1040,902.6C1062.8,898.8 1106.5,888.1 1106.2,876.3C1106,868.5 1086.5,862.9 1054.3,853.6C1033,847.5 1015.1,843.9 1003.2,841.8C990,848.3 975.8,854.7 960.5,860.8C939.8,869.1 920.1,875.6 901.8,880.7C907.3,894.2 912.9,907.5 918.5,920.7Z" style="fill:rgb(50,50,50);fill-rule:nonzero;stroke:black;stroke-width:3px;"/>
        </g>
        <g transform="matrix(1,0,0,1,-66.8693,44.7762)">
            <path d="M809.1,736C790.2,746.2 773.9,757.5 771.1,759.4C761.5,766.1 739.1,781.8 716.9,804.7C684.1,838.5 656.5,866.9 658.3,902.9C659.9,935.3 684.4,957.8 687.1,960.2C730.8,999.2 824.2,985 918.5,924.9C915.1,907 911.8,889.2 908.4,871.3C916.8,869.6 935.8,864.5 953.1,848.2C974.6,827.9 979.4,803.3 980.6,795.3C980.5,786.2 979.4,775.5 976.3,763.9C966.8,728.3 944.2,705.8 932.2,695.5C901.1,700.9 854.3,711.8 809.1,736Z" style="fill:white;fill-rule:nonzero;stroke:rgb(22,22,22);stroke-width:3px;"/>
        </g>
        <g transform="matrix(1,0,0,1,-66.8693,44.7762)">
            <path d="M880.6,754.7C861.4,765.1 844.3,776.9 842.6,778.1C817.8,795.4 800.3,812 788.4,823.4C745.9,864.2 715.7,891.9 719.7,925.5C723.6,957.8 755.9,977.3 758.6,978.8C777.5,989.8 796.7,990.1 812.1,989.3C881.3,985.7 958.9,956.2 990,943.5C986.6,925.6 983.3,907.8 979.9,889.9C988.3,887.1 1012.1,877.7 1027.8,852.9C1030.2,849.1 1038.6,835.2 1040.9,815.3C1041.6,809.6 1042.4,797.6 1036.1,772.7C1032.2,757.3 1025.2,735.8 1012.1,711.4C984.5,716.3 930.6,727.7 880.6,754.7Z" style="fill:white;fill-rule:nonzero;stroke:rgb(22,22,22);stroke-width:3px;"/>
        </g>
        <g transform="matrix(1,0,0,1,-66.8693,44.7762)">
            <g>
                <path d="M871.5,909C908.6,909.9 945.6,904.3 980.7,892.4C982.5,891.8 981.7,888.9 979.9,889.5C945,901.4 908.4,907 871.5,906C869.6,905.9 869.6,908.9 871.5,909Z" style="fill:rgb(22,22,22);fill-rule:nonzero;"/>
            </g>
        </g>
        <g transform="matrix(1,0,0,1,-66.8693,44.7762)">
            <g>
                <path d="M861.8,898.5C864.3,902.8 868.1,906.2 872.7,908.1C874.5,908.8 876,906.3 874.2,905.5C870,903.7 866.7,900.9 864.4,897C863.4,895.3 860.8,896.8 861.8,898.5Z" style="fill:rgb(22,22,22);fill-rule:nonzero;"/>
            </g>
        </g>
        <g transform="matrix(1,0,0,1,-66.8693,44.7762)">
            <path d="M924.8,824.4C890,843.9 872,840.7 837.4,867.7C828.4,874.8 775.8,915.9 782.5,957.6C783.1,961.1 786.2,980.7 800.8,988.4C807,991.7 813.1,991.5 821.6,990.9C850.1,988.7 872.1,983.3 874.8,982.6C909.8,973.9 903.9,977.5 928,971C943.9,966.7 965.4,959.9 990.4,949.4C987.1,931.9 983.7,914.5 980.4,897C987.7,893.6 997.7,887.9 1007.9,878.7C1015.3,872 1036.4,853 1041.2,823C1043.8,806.9 1040.6,794.6 1035.4,774.7C1030.1,754.4 1022.7,738.6 1017.1,728.1C985.9,782.8 950.9,809.9 924.8,824.4Z" style="fill:rgb(61,61,61);fill-opacity:0.12;fill-rule:nonzero;"/>
        </g>
        <g transform="matrix(1,0,0,1,-66.8693,44.7762)">
            <path d="M887.4,738.1C886,735.7 842,755.7 791.7,792.2C729.5,837.3 695,864 693.5,902C691.8,946.3 752.5,983.3 755.1,981C756.5,979.7 719.9,954.4 719.3,917.8C718.9,893.9 734.1,875 760.9,847.9C829.4,778.6 889.1,741 887.4,738.1Z" style="fill:rgb(61,61,61);fill-opacity:0.11;fill-rule:nonzero;"/>
        </g>
        <g transform="matrix(1,0,0,1,-66.8693,44.7762)">
            <path d="M1028.8,759.8C1024.2,778 1014.7,804.9 993.9,831.4C949.6,887.7 886.7,900.7 868.3,903.8C871.4,906.8 874.4,910.2 877.5,913.8C894.1,933.8 902.3,955.2 906.6,972C933.8,962.6 961,953.1 988.1,943.7C983.9,927.1 979.8,910.4 975.6,893.8C984.2,890.3 998.2,883.2 1011.4,869.7C1016.9,864 1030.2,850.1 1036.4,828.1C1045.4,795.5 1032.8,767.7 1028.8,759.8Z" style="fill:rgb(61,61,61);fill-opacity:0.12;fill-rule:nonzero;"/>
        </g>
    </g>
    <g id="hand_r" transform="matrix(1,0,0,1,-150,-150)">
        <g transform="matrix(1,0,0,1,-66.8693,44.7762)">
            <path d="M812.6,469.6C821,470.8 824.6,495.9 825.8,504.2C830.7,537.9 820.3,553 818.7,594.3C817.4,627.1 823.4,628.6 820.7,644.6C816.7,668 798.2,698 732.5,725.2C727.6,730.5 718.9,738.8 706.3,744.1C679.8,755.3 645,749.5 640.3,733.4C638.7,728 640.2,720.5 643.9,717C649.9,711.2 659.1,719.5 674.3,714C675.1,713.7 681.9,711.2 681.7,709.4C681.6,708.3 679,707.9 675.9,707.5C661.8,705.5 657.6,705.9 657.3,704.7C656.8,702.7 667.6,695.8 681.6,691.8C692.4,688.7 707,686 725,686.9C740.7,669.2 756.5,651.5 772.2,633.8C770.7,611 771,578.5 779.6,541.6C785.9,514.8 800.8,467.9 812.6,469.6Z" style="fill:white;fill-rule:nonzero;stroke:rgb(22,22,22);stroke-width:3px;"/>
        </g>
        <g transform="matrix(1,0,0,1,-66.8693,44.7762)">
            <path d="M813,469.1C800.7,469.3 789.6,518.2 787.3,552.9C784.4,596.8 795.9,610.5 787.3,637.4C781.6,655.2 767.2,678.1 728.5,698.9C698,724.4 677.7,727.1 664.3,723.9C656.1,722 645.9,716.7 641.3,721.2C637.4,725 639.2,734.4 643.3,740.8C653.1,755.7 682.6,752.1 699.4,746.2C715,740.7 725.3,731.1 731.2,724.6C744.9,720.9 776.9,710.2 803.5,680C829.4,650.6 835.5,619.3 838.6,602.3C850.5,537.6 828,468.8 813,469.1Z" style="fill:rgb(61,61,61);fill-opacity:0.12;fill-rule:nonzero;"/>
        </g>
    </g>
    <g id="torso" transform="matrix(1,0,0,1,-150,-150)">
        <g transform="matrix(1,0,0,1,-66.8693,44.7762)">
            <path d="M964.7,411.6C1000.3,419.1 1027.3,449.2 1039,476.9C1051.9,507.3 1044.4,531.1 1037.2,581.4C1032.3,615.9 1027,665.6 1027,727.7C1016.2,735.9 965.1,773.3 895.5,763.8C851.3,757.8 821.1,735.9 807.8,724.8C810,708.8 812.2,684 809.6,654C805.8,611.8 795.6,595.3 793.7,561.9C792.5,540.8 794.3,509.7 810.5,470.7C819.6,464.5 832.5,456.3 848.6,447.7C898.6,421 929.9,404.3 964.7,411.6Z" style="fill:rgb(255,0,92);fill-rule:nonzero;"/>
        </g>
        <g transform="matrix(1,0,0,1,-66.8693,44.7762)">
            <path d="M930.1,458.3C939.3,482.9 952.3,528.5 945.4,584.9C933.9,678.6 875.2,736.5 857,753.1C871.6,758.9 901.8,768.5 940.3,764.1C983.8,759.1 1013.6,738.9 1026.1,729.3C1025,687.7 1027.5,653.1 1030.3,627.4C1038.9,550 1054.4,522.1 1037.9,479.6C1034,469.5 1020.9,435.7 987.8,420.1C979.1,416 971.2,414.2 965.7,413.3C963.7,420.4 959.1,433.1 947.9,444.7C941.7,451.3 935.2,455.5 930.1,458.3Z" style="fill:rgb(61,61,61);fill-opacity:0.14;fill-rule:nonzero;"/>
        </g>
        <g transform="matrix(1,0,0,1,-66.8693,44.7762)">
            <path d="M1041.4,494C1015.1,565.4 988.7,636.7 962.4,708.1C939.5,726.8 916.5,745.5 893.6,764.2C910.7,765.7 937.9,765.8 969.2,756.6C995.2,748.9 1014.9,737.5 1027.8,728.6C1027.5,718 1027.3,702.4 1027.8,683.6C1029.2,636.4 1029.8,612.8 1036.3,584.2C1042.3,557.8 1050.4,537.7 1044.8,507.7C1043.7,501.7 1042.4,497 1041.4,494Z" style="fill:rgb(61,61,61);fill-opacity:0.21;fill-rule:nonzero;"/>
        </g>
    </g>
    <g id="newsletters" transform="matrix(1,0,0,1,-150,-150)">
        <g transform="matrix(1,0,0,1,-66.8693,44.7762)">
            <path d="M617.7,700.5C629.6,729.3 641.6,758.1 653.5,786.8C701.9,770 750.4,753.1 798.8,736.3C787.2,708.6 775.6,680.8 764.1,653.1C715.3,668.9 666.5,684.7 617.7,700.5Z" style="fill:white;fill-rule:nonzero;stroke:rgb(22,22,22);stroke-width:3px;"/>
        </g>
        <g transform="matrix(1,0,0,1,-66.8693,44.7762)">
            <path d="M602.1,605.3C618.3,617.1 637.7,633.6 656.8,655.8C672.3,673.8 683.9,691.3 692.6,706.3C711.6,676.8 730.5,647.3 749.5,617.9C727.4,593.3 705.3,568.8 683.2,544.2C656.1,564.6 629.1,584.9 602.1,605.3Z" style="fill:white;fill-rule:nonzero;stroke:rgb(22,22,22);stroke-width:3px;"/>
        </g>
        <g transform="matrix(1,0,0,1,-66.8693,44.7762)">
            <path d="M514.5,468.1L514.5,549.2C535.2,539 555.9,528.8 576.6,518.7C590.3,512 604,505.3 617.7,498.7C613.8,479 610,459.4 606.1,439.7C575.6,449.1 545.1,458.6 514.5,468.1Z" style="fill:white;fill-rule:nonzero;stroke:rgb(22,22,22);stroke-width:3px;"/>
        </g>
        <g transform="matrix(1,0,0,1,-66.8693,44.7762)">
            <path d="M454.2,295.7C464.4,319.9 474.6,344.1 484.7,368.3C520.8,347.6 557,326.9 593.1,306.2C578,277.4 562.9,248.6 547.8,219.9C538.3,230.9 526.8,242.8 513.1,254.6C492.2,272.8 471.7,286 454.2,295.7Z" style="fill:white;fill-rule:nonzero;stroke:rgb(22,22,22);stroke-width:3px;"/>
        </g>
        <g transform="matrix(1,0,0,1,-66.8693,44.7762)">
            <path d="M304.7,327.3C301.5,345.9 298.4,364.5 295.2,383.1C332,374.7 368.9,366.3 405.7,357.8C405,337.4 404.3,317.1 403.6,296.7C370.7,306.9 337.7,317.1 304.7,327.3Z" style="fill:white;fill-rule:nonzero;stroke:rgb(22,22,22);stroke-width:3px;"/>
        </g>
        <g transform="matrix(1,0,0,1,-66.8693,44.7762)">
            <g>
                <path d="M618.8,703C653.4,708.1 687.7,714.5 721.7,722.2C723.6,722.6 724.4,719.7 722.5,719.3C688.4,711.6 654.1,705.1 619.6,700.1C617.7,699.9 616.9,702.8 618.8,703Z" style="fill:rgb(22,22,22);fill-rule:nonzero;"/>
            </g>
        </g>
        <g transform="matrix(1,0,0,1,-66.8693,44.7762)">
            <g>
                <path d="M762.1,654.5C751,677.6 737.5,699.5 721.8,719.7C720.6,721.2 722.7,723.3 723.9,721.8C739.8,701.4 753.5,679.3 764.7,656C765.5,654.3 762.9,652.8 762.1,654.5Z" style="fill:rgb(22,22,22);fill-rule:nonzero;"/>
            </g>
        </g>
        <g transform="matrix(1,0,0,1,-66.8693,44.7762)">
            <g>
                <path d="M626.9,611.3C643.7,593.5 662.4,577.6 682.8,564C684.4,562.9 682.9,560.3 681.3,561.4C660.7,575.2 641.8,591.2 624.8,609.2C623.4,610.5 625.6,612.7 626.9,611.3Z" style="fill:rgb(22,22,22);fill-rule:nonzero;"/>
            </g>
        </g>
        <g transform="matrix(1,0,0,1,-66.8693,44.7762)">
            <g>
                <path d="M641.4,620.3C654,606.4 667.9,593.8 682.9,582.7C684.4,581.6 682.9,579 681.4,580.1C666.1,591.4 652,604.1 639.3,618.2C637.9,619.6 640,621.7 641.4,620.3Z" style="fill:rgb(22,22,22);fill-rule:nonzero;"/>
            </g>
        </g>
        <g transform="matrix(1,0,0,1,-66.8693,44.7762)">
            <g>
                <path d="M654,637.1C670.3,618.8 688.2,601.9 707.6,586.8C709.1,585.6 707,583.5 705.5,584.7C686.2,599.8 668.2,616.6 651.9,635C650.6,636.4 652.8,638.5 654,637.1Z" style="fill:rgb(22,22,22);fill-rule:nonzero;"/>
            </g>
        </g>
        <g transform="matrix(1,0,0,1,-66.8693,44.7762)">
            <g>
                <path d="M675.4,657.4C681.1,648.2 688.7,640.4 696.2,632.6C704.4,624.3 712.6,615.9 720.8,607.6C722.2,606.2 720,604.1 718.7,605.5C710.1,614.3 701.5,623 692.9,631.8C685.5,639.3 678.4,647 672.8,655.9C671.8,657.5 674.4,659 675.4,657.4Z" style="fill:rgb(22,22,22);fill-rule:nonzero;"/>
            </g>
        </g>
        <g transform="matrix(1,0,0,1,-66.8693,44.7762)">
            <g>
                <path d="M649.5,744.4C651.3,752.6 654.3,760.3 658.4,767.5C659.3,769.2 661.9,767.7 661,766C657,758.9 654.1,751.5 652.4,743.6C652,741.7 649.1,742.5 649.5,744.4Z" style="fill:rgb(22,22,22);fill-rule:nonzero;"/>
            </g>
        </g>
        <g transform="matrix(1,0,0,1,-66.8693,44.7762)">
            <g>
                <path d="M651.9,746.2C661.9,740.2 672.7,736.5 684.2,734.9C683.6,734.6 683,734.2 682.4,733.9C684.4,740.4 686.3,746.8 688.3,753.3C688.9,755.1 691.8,754.4 691.2,752.5C689.2,746 687.3,739.6 685.3,733.1C685,732.2 684.3,731.9 683.5,732.1C671.7,733.7 660.7,737.6 650.5,743.7C648.7,744.6 650.2,747.2 651.9,746.2Z" style="fill:rgb(22,22,22);fill-rule:nonzero;"/>
            </g>
        </g>
        <g transform="matrix(1,0,0,1,-66.8693,44.7762)">
            <g>
                <path d="M660.3,768.7C669.8,764.8 679.1,760.4 688.3,755.7C690,754.8 688.5,752.2 686.8,753.1C677.9,757.7 668.8,761.9 659.5,765.8C657.7,766.6 658.5,769.5 660.3,768.7Z" style="fill:rgb(22,22,22);fill-rule:nonzero;"/>
            </g>
        </g>
        <g transform="matrix(1,0,0,1,-66.8693,44.7762)">
            <g>
                <path d="M736.8,723.6C747.8,717.7 759.5,713.6 771.7,711.1C773.6,710.7 772.8,707.8 770.9,708.2C758.4,710.7 746.5,715 735.3,721C733.5,721.9 735.1,724.5 736.8,723.6Z" style="fill:rgb(22,22,22);fill-rule:nonzero;"/>
            </g>
        </g>
        <g transform="matrix(1,0,0,1,-66.8693,44.7762)">
            <g>
                <path d="M740.4,732.2C747.1,729.3 753.8,726.4 760.4,723.5C762.2,722.7 760.6,720.1 758.9,720.9C752.2,723.8 745.5,726.7 738.9,729.6C737.1,730.4 738.7,732.9 740.4,732.2Z" style="fill:rgb(22,22,22);fill-rule:nonzero;"/>
            </g>
        </g>
        <g transform="matrix(1,0,0,1,-66.8693,44.7762)">
            <g>
                <path d="M523.5,478.6C547.3,470.7 571.1,461.1 595.8,456.3C597.7,455.9 596.9,453 595,453.4C570.4,458.3 546.5,467.8 522.7,475.7C520.9,476.3 521.7,479.2 523.5,478.6Z" style="fill:rgb(22,22,22);fill-rule:nonzero;"/>
            </g>
        </g>
        <g transform="matrix(1,0,0,1,-66.8693,44.7762)">
            <g>
                <path d="M523.1,491.5C545.9,481 569.5,472.5 593.7,466.1C595.6,465.6 594.8,462.7 592.9,463.2C568.4,469.7 544.6,478.3 521.6,488.9C519.9,489.7 521.4,492.3 523.1,491.5Z" style="fill:rgb(22,22,22);fill-rule:nonzero;"/>
            </g>
        </g>
        <g transform="matrix(1,0,0,1,-66.8693,44.7762)">
            <g>
                <path d="M521.3,504.5C531.3,500.4 541.1,496 550.8,491.3C552.5,490.5 551,487.9 549.3,488.7C539.8,493.3 530.2,497.6 520.5,501.6C518.8,502.3 519.5,505.2 521.3,504.5Z" style="fill:rgb(22,22,22);fill-rule:nonzero;"/>
            </g>
        </g>
        <g transform="matrix(1,0,0,1,-66.8693,44.7762)">
            <g>
                <path d="M526.8,515.3C547.9,504.6 569.5,494.8 591.5,486.1C593.3,485.4 592.5,482.5 590.7,483.2C568.4,492 546.6,501.9 525.3,512.7C523.5,513.6 525.1,516.2 526.8,515.3Z" style="fill:rgb(22,22,22);fill-rule:nonzero;"/>
            </g>
        </g>
        <g transform="matrix(1,0,0,1,-66.8693,44.7762)">
            <g>
                <path d="M466.9,301.9C495.3,288.1 521.7,270.7 545.7,250.3C547.2,249 545,246.9 543.6,248.2C519.8,268.5 493.5,285.6 465.4,299.4C463.6,300.2 465.1,302.8 466.9,301.9Z" style="fill:rgb(22,22,22);fill-rule:nonzero;"/>
            </g>
        </g>
        <g transform="matrix(1,0,0,1,-66.8693,44.7762)">
            <g>
                <path d="M473,314.9C484.9,308 496.3,300.4 507.3,292.1C508.8,291 507.3,288.3 505.8,289.5C494.8,297.8 483.4,305.4 471.5,312.3C469.8,313.3 471.3,315.9 473,314.9Z" style="fill:rgb(22,22,22);fill-rule:nonzero;"/>
            </g>
        </g>
        <g transform="matrix(1,0,0,1,-66.8693,44.7762)">
            <g>
                <path d="M480.6,324C506.2,310.3 530.8,295.1 554.5,278.3C556.1,277.2 554.6,274.6 553,275.7C529.4,292.5 504.7,307.7 479.1,321.4C477.4,322.3 478.9,324.9 480.6,324Z" style="fill:rgb(22,22,22);fill-rule:nonzero;"/>
            </g>
        </g>
        <g transform="matrix(1,0,0,1,-66.8693,44.7762)">
            <g>
                <path d="M487,339.5C515.3,326.7 542.3,311.3 567.7,293.3C569.3,292.2 567.8,289.6 566.2,290.7C540.9,308.7 513.9,324.1 485.5,336.9C483.7,337.7 485.2,340.2 487,339.5Z" style="fill:rgb(22,22,22);fill-rule:nonzero;"/>
            </g>
        </g>
        <g transform="matrix(1,0,0,1,-66.8693,44.7762)">
            <path d="M626.1,588.7C636.8,586.3 647.5,583.9 658.2,581.5C673.4,613.5 688.6,645.5 703.8,677.4C719,657.7 734.2,638.1 749.4,618.4C727,594.3 704.6,570.1 682.3,546C663.5,560.3 644.8,574.5 626.1,588.7Z" style="fill:rgb(61,61,61);fill-opacity:0.13;fill-rule:nonzero;"/>
        </g>
        <g transform="matrix(1,0,0,1,-66.8693,44.7762)">
            <path d="M547.5,461.1C541.9,486.8 536.3,512.6 530.7,538.3C559.3,524.6 587.9,510.8 616.6,497.1C612.4,478.9 608.3,460.6 604.1,442.4C585.2,448.7 566.3,454.9 547.5,461.1Z" style="fill:rgb(61,61,61);fill-opacity:0.21;fill-rule:nonzero;"/>
        </g>
        <g transform="matrix(1,0,0,1,-66.8693,44.7762)">
            <path d="M676.5,683.2C682.1,696.8 687.7,710.4 693.3,724C702.6,726.1 711.8,728.2 721.1,730.2C731.2,737.2 741.2,744.3 751.3,751.3C766.6,746 782,740.7 797.3,735.5C785.6,709 774,682.4 762.3,655.9C747,660.5 731.6,665.2 716.3,669.8C708.3,682.6 700.3,695.4 692.3,708.2C687,699.8 681.8,691.5 676.5,683.2Z" style="fill:rgb(61,61,61);fill-opacity:0.08;fill-rule:nonzero;"/>
        </g>
        <g transform="matrix(1,0,0,1,-66.8693,44.7762)">
            <path d="M323.5,328.5C318.7,345.2 314,362 309.2,378.7C341.1,371.3 373,363.9 404.9,356.5C403.8,337.3 402.8,318.1 401.7,298.9C375.6,308.8 349.5,318.7 323.5,328.5Z" style="fill:rgb(61,61,61);fill-opacity:0.15;fill-rule:nonzero;"/>
        </g>
        <g transform="matrix(1,0,0,1,-66.8693,44.7762)">
            <path d="M499.5,271.4C503.2,325.4 506,352.3 508,352.3C508.6,352.3 509.1,349.6 509.6,344.4C535.8,331.2 562.1,318 588.3,304.8C575.1,280.1 561.9,255.5 548.7,230.8C532.2,244.3 515.8,257.9 499.5,271.4Z" style="fill:rgb(61,61,61);fill-opacity:0.11;fill-rule:nonzero;"/>
        </g>
    </g>
    <g id="hand_l" transform="matrix(1,0,0,1,-150,-150)">
        <g transform="matrix(1,0,0,1,-66.8693,44.7762)">
            <path d="M1016.2,451.9C1029.7,450.1 1046.1,489.3 1053.1,512.7C1064.9,552.3 1060.7,587 1056.7,619.2C1052.4,653.5 1050.3,670.7 1042.1,688.7C1015.6,746.9 949,769.2 922.9,776.4C915.8,781.6 903.1,789.9 885.6,795.3C848.5,806.7 799.8,801.8 793.1,782.7C790.9,776.3 793,767.5 798.1,763.4C806.6,756.6 819.3,766.3 840.7,759.8C841.8,759.5 851.3,756.5 851,754.4C850.8,753.1 847.3,752.7 842.9,752.2C823.2,749.9 817.3,750.3 816.9,748.9C816.3,746.5 831.4,738.5 850.9,733.7C866.1,730 886.5,726.8 911.7,727.9C936.3,705.3 960.9,682.6 985.5,660C985.3,604.8 989.7,559.3 994.2,525.9C1003.6,458.1 1011.7,452.5 1016.2,451.9Z" style="fill:white;fill-rule:nonzero;stroke:rgb(22,22,22);stroke-width:3px;"/>
        </g>
        <g transform="matrix(1,0,0,1,-66.8693,44.7762)">
            <g>
                <path d="M791.6,781.9C795.4,786 802.4,787.2 807.5,788.7C815,790.8 822.7,792.4 830.5,793.4C832.4,793.7 833.2,790.8 831.3,790.5C824.8,789.6 818.3,788.4 811.9,786.7C806.4,785.3 797.6,784.1 793.7,779.7C792.4,778.4 790.3,780.5 791.6,781.9Z" style="fill:rgb(22,22,22);fill-rule:nonzero;"/>
            </g>
        </g>
        <g transform="matrix(1,0,0,1,-66.8693,44.7762)">
            <g>
                <path d="M793.3,772.8C805.8,780.5 819.8,784.8 834.5,785.5C836.4,785.6 836.4,782.6 834.5,782.5C820.3,781.9 806.9,777.7 794.8,770.2C793.2,769.2 791.6,771.8 793.3,772.8Z" style="fill:rgb(22,22,22);fill-rule:nonzero;"/>
            </g>
        </g>
        <g transform="matrix(1,0,0,1,-66.8693,44.7762)">
            <g>
                <path d="M798.6,765.8C812.6,772.9 827.8,776.6 843.5,776.6C845.4,776.6 845.4,773.6 843.5,773.6C828.3,773.6 813.6,770.1 800.1,763.2C798.4,762.3 796.9,764.9 798.6,765.8Z" style="fill:rgb(22,22,22);fill-rule:nonzero;"/>
            </g>
        </g>
        <g transform="matrix(1,0,0,1,-66.8693,44.7762)">
            <path d="M1011,456.3C1020,475.9 1031.9,507.7 1035.4,548.4C1038,578.9 1042.3,630.9 1011,682.7C980.2,733.6 933.5,753.8 916.2,761.2C898.8,768.7 869.6,780.9 831.7,776.9C816.4,775.3 804,771.5 795.4,768.2C793.5,772.4 791.7,778.4 793.8,783.9C800.6,801.8 843,801.5 865.8,798C878.5,796.1 899.6,791 923.2,775.3C951.6,766.9 1022.2,741.9 1043.4,685.4C1049.6,668.9 1053.3,645.2 1055.3,632.3C1058.1,614.1 1062.2,586.8 1059.6,551.6C1059.6,551.6 1055.8,500.7 1027.6,459C1026.3,457 1023.3,452.8 1018.9,452.5C1015.5,452.3 1012.5,454.8 1011,456.3Z" style="fill:rgb(61,61,61);fill-opacity:0.15;fill-rule:nonzero;"/>
        </g>
        <g transform="matrix(1,0,0,1,-66.8693,44.7762)">
            <path d="M1057.6,590.1C1054.6,589.6 1048.2,622.8 1041.4,643.7C1029.6,679.9 1000.8,727.8 924.4,775.3C941.7,771.4 966.3,763.2 991,745.5C1003.5,736.5 1024.6,721.4 1039.2,693.5C1049.3,674.2 1052,656.9 1055.4,634.5C1058.5,614.8 1060.1,590.5 1057.6,590.1Z" style="fill:rgb(61,61,61);fill-opacity:0.09;fill-rule:nonzero;"/>
        </g>
    </g>
    <g id="head" transform="matrix(1,0,0,1,-150,-150)">
        <g transform="matrix(1,0,0,1,-66.8693,44.7762)">
            <path d="M781.5,268.2C781,291.3 780.5,314.3 780,337.4C773,366.6 783.9,396.2 806.6,411.2C831.3,427.5 858.9,419.3 862.9,418C863.1,423.6 862.9,430.6 861.4,438.5C860.1,445.8 858,451.9 856.1,456.7C868.3,468.1 879.6,471 885.8,471.9C915.2,476.2 948.8,452.6 966.4,411.8C961.1,406.2 954,397.8 947.4,386.7C943.6,380.4 934.8,364.5 929.9,341.8C924.9,318.6 929.8,315.5 926.1,298.5C921.9,279.1 909.8,257.1 893.4,246C865.8,227.7 819.4,235.8 781.5,268.2Z" style="fill:white;fill-rule:nonzero;stroke:rgb(22,22,22);stroke-width:3px;"/>
        </g>
        <g transform="matrix(1,0,0,1,-66.8693,44.7762)">
            <path d="M777.4,346.5C770.4,350.3 769.9,361.5 769.2,376.3C768.5,390.1 767.8,406.6 778.2,423.1C786.1,435.7 796.8,441.9 801.2,444.4C824,457.4 847.2,453.4 854.5,451.8C849.9,449.9 845.2,448 840.6,446.1C846.3,445.9 855.9,444.8 866,439.5C876.4,434.1 882.3,426.9 887.3,420.6C893.2,413.2 902.5,399.5 907.8,378.8C905.2,374.3 895.2,356.1 900.4,333.7C903.3,321.3 909.6,312.8 913.5,308.3C919.6,308.7 922.9,311.2 924.2,312.4C930.9,318.5 931.7,331 925,342.8C927.9,340.7 934.8,334.9 938.1,324.7C941.6,314.1 938.8,305.2 937.3,300.1C935.4,294 932.6,284.9 924.2,280.4C921.8,279.1 918,277.5 913.5,277.9C899.1,279.3 896.1,302.4 879.3,323.7C866.7,339.6 840.8,361.4 815.3,358.5C796.1,356.3 786.9,341.3 777.4,346.5Z" style="fill:rgb(22,22,22);fill-rule:nonzero;stroke:rgb(50,50,50);stroke-width:3px;"/>
        </g>
        <g transform="matrix(1,0,0,1,-66.8693,44.7762)">
            <g>
                <path d="M812.6,306.6C813.8,322.4 814,338.3 813.1,354.1C813,355.5 814.8,356 815.7,355.2C820.7,350.8 825.7,346.4 830.6,342C832,340.7 829.9,338.6 828.5,339.9C823.5,344.3 818.5,348.7 813.6,353.1C814.5,353.5 815.3,353.8 816.2,354.2C817.1,338.4 816.9,322.5 815.7,306.7C815.5,304.7 812.5,304.7 812.6,306.6Z" style="fill:rgb(22,22,22);fill-rule:nonzero;"/>
            </g>
        </g>
        <g transform="matrix(1,0,0,1,-66.8693,44.7762)">
            <g>
                <path d="M791,322C790.6,320.9 789.3,316.5 791.7,316.5C793.1,316.5 793.1,318.9 793.1,319.8C793.1,320.7 793.1,322.2 792.4,323C791.7,323.9 790.7,323.2 790.4,322.2C790.1,321.2 790.3,320.1 790.4,319.1C790.7,317.2 787.8,316.4 787.5,318.3C787,321.5 787.4,326.7 791.9,326.4C795.1,326.2 796,322.4 796,319.7C796,316.9 794.8,313 791.2,313.4C786.5,314 786.8,319.4 787.9,322.7C788.7,324.6 791.6,323.8 791,322Z" style="fill:rgb(22,22,22);fill-rule:nonzero;"/>
            </g>
        </g>
        <g transform="matrix(1,0,0,1,-66.8693,44.7762)">
            <g>
                <path d="M793.1,321.1C792.4,320.3 792.4,318.9 793.1,318C792.3,317.9 791.5,317.8 790.7,317.7C791.5,318.8 791.7,320.4 790.8,321.5C791.6,321.6 792.4,321.7 793.2,321.8C792.9,321.3 790.8,318.4 792.5,318.3C792.3,318.3 792.5,318 792.4,318.5C792.4,318.9 792.5,319.4 792.5,319.9C792.5,320.2 792.3,321.5 791.8,321.2C790.2,320.1 788.7,322.7 790.3,323.8C792.1,325 794.4,323.8 795.1,322C795.8,320.3 795.8,316.9 794,315.8C792.4,314.8 790.2,315.7 789.3,317.2C788.1,319.3 789.3,321.6 790.5,323.4C791,324.1 792.2,324.5 792.9,323.7C794.6,321.6 794.9,318.6 793.3,316.3C792.8,315.6 791.6,315.2 790.9,316C789.1,318.2 789.1,321.1 790.9,323.3C792.2,324.6 794.3,322.5 793.1,321.1Z" style="fill:rgb(22,22,22);fill-rule:nonzero;"/>
            </g>
        </g>
        <g transform="matrix(1,0,0,1,-66.8693,44.7762)">
            <g>
                <path d="M849.2,317.9C848.2,317 847,314.9 848.8,314C850.6,313.1 850.9,315.5 850.9,316.7C850.9,317.4 851.1,320.2 849.9,320.2C848.8,320.2 848.2,317.9 847.9,317.2C847.4,315.4 844.5,316.1 845,318C845.8,320.6 847.8,324.1 851,323C854.1,322 854.2,317.4 853.7,314.8C853.1,311.7 850,309.7 847.1,311.5C843.9,313.5 844.6,317.7 847.1,320C848.5,321.3 850.6,319.2 849.2,317.9Z" style="fill:rgb(22,22,22);fill-rule:nonzero;"/>
            </g>
        </g>
        <g transform="matrix(1,0,0,1,-66.8693,44.7762)">
            <g>
                <path d="M851.3,318.7C850.9,317.4 850.8,316.1 851.1,314.8C850.4,315.1 849.6,315.4 848.9,315.7C849.6,316.1 849.6,317.4 848.9,317.8C849.6,318.1 850.4,318.4 851.1,318.7C850.5,317.4 850,316 849.4,314.7C849.1,314 848.4,313.4 847.6,313.7C846.9,313.9 846.2,314.8 846.6,315.5C847.2,316.8 847.7,318.2 848.3,319.5C848.7,320.4 849.6,321 850.5,320.4C853.1,318.8 853.1,314.7 850.5,313.1C849.7,312.6 848.5,313 848.3,314C847.9,315.9 848,317.7 848.5,319.5C849,321.3 851.8,320.5 851.3,318.7Z" style="fill:rgb(22,22,22);fill-rule:nonzero;"/>
            </g>
        </g>
        <g transform="matrix(1,0,0,1,-66.8693,44.7762)">
            <g>
                <path d="M786.7,303.8C789.9,297.9 797.8,297.1 801.8,302.7C802.9,304.3 805.5,302.8 804.4,301.2C799.1,293.9 788.5,294.2 784.1,302.3C783.2,304 785.8,305.5 786.7,303.8Z" style="fill:rgb(22,22,22);fill-rule:nonzero;"/>
            </g>
        </g>
        <g transform="matrix(1,0,0,1,-66.8693,44.7762)">
            <g>
                <path d="M839.2,303.5C843.5,296.4 853.6,297 856.7,304.8C857.4,306.6 860.3,305.8 859.6,304C855.5,293.8 842.3,292.5 836.6,302C835.6,303.6 838.2,305.1 839.2,303.5Z" style="fill:rgb(22,22,22);fill-rule:nonzero;"/>
            </g>
        </g>
        <g transform="matrix(1,0,0,1,-66.8693,44.7762)">
            <path d="M744.4,277.1C796.4,280.1 848.3,284.3 900.1,289.7C905.9,290.3 905.8,281.3 900.1,280.7C848.3,275.2 796.4,271 744.4,268.1C738.6,267.8 738.6,276.8 744.4,277.1Z" style="fill:rgb(22,22,22);fill-rule:nonzero;stroke:rgb(50,50,50);stroke-width:1px;stroke-linejoin:round;stroke-miterlimit:2;"/>
        </g>
        <g transform="matrix(1,0,0,1,-66.8693,44.7762)">
            <path d="M778.1,270.5C778.9,262.8 782.2,243 798.1,226.8C819.6,204.9 857.1,197.3 886.7,214.8C909.9,228.6 923.4,254.9 921.8,282.8C873.9,278.8 826,274.6 778.1,270.5Z" style="fill:rgb(209,1,76);fill-rule:nonzero;"/>
        </g>
        <g transform="matrix(1,0,0,1,-66.8693,44.7762)">
            <path d="M923.5,341.7C923.4,342.5 922.1,349.2 916.1,352.2C913,353.7 910.1,353.7 908.7,353.5C914.8,361.3 939.8,395.1 931.9,436.5C929.8,447.3 925.9,456.4 921.9,463.6C928.5,459.5 937.1,453.2 945.5,443.9C955.9,432.4 961.8,420.9 965.2,412.9C958.9,405 952,395.3 945.5,383.6C937,368.3 931.6,353.9 928,342.1C926.4,342 925,341.8 923.5,341.7Z" style="fill:rgb(61,61,61);fill-opacity:0.11;fill-rule:nonzero;"/>
        </g>
        <g transform="matrix(1,0,0,1,-66.8693,44.7762)">
            <path d="M812.5,307.2C808.9,321 805.2,334.9 801.6,348.7C805.7,350.3 809.8,351.9 813.8,353.5C813.4,338 813,322.6 812.5,307.2Z" style="fill:rgb(61,61,61);fill-opacity:0.12;fill-rule:nonzero;"/>
        </g>
        <g transform="matrix(1,0,0,1,-66.8693,44.7762)">
            <path d="M843.8,209.3C833.5,218.7 839.2,247.1 857.3,277.2C878.7,279.1 900.1,281.1 921.5,283C922.2,274.2 922.3,257.1 912.4,240.7C895.5,212.8 856.5,197.8 843.8,209.3Z" style="fill:rgb(58,29,163);fill-opacity:0.69;fill-rule:nonzero;"/>
        </g>
    </g>
</svg>
