<svg xmlns="http://www.w3.org/2000/svg" viewBox="0 0 22 22" height="15px"><path d="M21,11a1,1,0,0,0-1,1v7a1,1,0,0,1-1,1H3a1,1,0,0,1-1-1V3A1,1,0,0,1,3,2h7a1,1,0,0,0,0-2H3A3,3,0,0,0,0,3V19a3,3,0,0,0,3,3H19a3,3,0,0,0,3-3V12A1,1,0,0,0,21,11Z" fill="currentColor"/><path d="M22,1A1.37,1.37,0,0,0,22,.8a.19.19,0,0,1,0-.08.42.42,0,0,0,0-.1l0-.09L21.83.44l-.1-.12,0,0,0,0-.13-.1L21.47.12l-.09,0-.1,0L21.2,0,21,0H15a1,1,0,0,0,0,2h3.59l-8.2,8.19a1,1,0,0,0,1.42,1.42L20,3.41V7a1,1,0,0,0,2,0V1Z" fill="currentColor"/></svg>