<?xml version="1.0" encoding="UTF-8" standalone="no"?>
<!DOCTYPE svg PUBLIC "-//W3C//DTD SVG 1.1//EN" "http://www.w3.org/Graphics/SVG/1.1/DTD/svg11.dtd">
<svg width="100%" height="100%" viewBox="0 0 1500 1000" version="1.1" xmlns="http://www.w3.org/2000/svg" xmlns:xlink="http://www.w3.org/1999/xlink" xml:space="preserve" xmlns:serif="http://www.serif.com/" style="fill-rule:evenodd;clip-rule:evenodd;stroke-linejoin:round;stroke-miterlimit:2;">
    <g id="background" transform="matrix(1,0,0,1,-50,-100)">
        <g transform="matrix(1,0,0,1,-79.5,-1.07256)">
            <path d="M1369.1,670.7L1422.6,670.7C1424.5,670.7 1424.5,667.7 1422.6,667.7L1369.1,667.7C1367.2,667.7 1367.2,670.7 1369.1,670.7Z" style="fill:rgb(68,68,68);fill-rule:nonzero;stroke:rgb(36,36,36);stroke-width:1px;"/>
        </g>
        <g transform="matrix(1,0,0,1,-79.5,-1.07256)">
            <path d="M1387.2,953.6C1372.3,930.8 1362.6,905 1358.9,878C1358.4,878.6 1357.9,879.3 1357.5,879.9C1360.9,879.6 1363.8,880.3 1366.5,882.4C1368,883.6 1370.1,881.5 1368.6,880.3C1365.2,877.7 1361.7,876.5 1357.5,876.9C1356.4,877 1355.9,877.8 1356.1,878.8C1359.9,906.1 1369.6,932.1 1384.7,955.1C1385.7,956.7 1388.3,955.2 1387.2,953.6Z" style="fill:rgb(68,68,68);fill-rule:nonzero;stroke:rgb(36,36,36);stroke-width:1px;"/>
        </g>
        <g transform="matrix(1,0,0,1,-79.5,-1.07256)">
            <path d="M1368.5,880.8C1365.1,845.7 1370.5,810.3 1384.3,777.8L1381.7,777.8C1383.2,780 1384.3,782.1 1385.2,784.6C1385.8,786.4 1388.7,785.6 1388.1,783.8C1387.1,781.1 1386,778.7 1384.3,776.3C1383.7,775.5 1382.2,775.2 1381.7,776.3C1367.7,809.3 1362.1,845.2 1365.5,880.8C1365.7,882.7 1368.7,882.8 1368.5,880.8Z" style="fill:rgb(68,68,68);fill-rule:nonzero;stroke:rgb(36,36,36);stroke-width:1px;"/>
        </g>
        <g transform="matrix(1,0,0,1,-79.5,-1.07256)">
            <path d="M1389,783.3C1392.5,774.8 1396.4,766.4 1400.8,758.4C1404.5,751.7 1409.8,738.2 1419.4,740.1C1429.1,742 1432.3,754.9 1434.4,763C1436.7,772 1437.7,781.3 1438,790.5C1438.6,807.9 1437.2,825.4 1436,842.7C1434.7,861.1 1432.6,879.5 1428.3,897.5C1423.6,917.5 1416.6,936.8 1407.7,955.2C1406.9,956.9 1409.4,958.5 1410.3,956.7C1419.1,938.6 1426.1,919.6 1430.8,900C1435.7,879.9 1437.9,859.4 1439.2,838.8C1440.5,818.3 1442.5,797.3 1440,776.8C1438.5,764.5 1434.9,737.5 1418.1,736.7C1409.3,736.3 1404.7,745.5 1401,751.9C1395.3,761.7 1390.4,771.9 1386.1,782.4C1385.4,784.3 1388.3,785.1 1389,783.3Z" style="fill:rgb(68,68,68);fill-rule:nonzero;stroke:rgb(36,36,36);stroke-width:1px;"/>
        </g>
        <g transform="matrix(1,0,0,1,-79.5,-1.07256)">
            <path d="M1438.3,854.9C1441.7,848.1 1445.7,841.7 1450.5,835.9C1452.8,833.1 1463.6,818.7 1467.9,822C1468.8,822.7 1469.1,826.1 1469.3,827.3C1469.9,829.8 1470.3,832.4 1470.5,835C1470.9,839 1471,842.9 1470.8,846.9C1470.4,855.4 1468.9,863.9 1466.8,872.2C1459.2,902.5 1445.6,931.1 1427.9,956.7C1426.8,958.3 1429.4,959.8 1430.5,958.2C1451,928.7 1467.7,893.3 1472.8,857.4C1474,848.9 1474.4,840.3 1473.2,831.8C1472.7,828.1 1472,816.1 1465.9,817.3C1463.1,817.9 1460.5,821.1 1458.5,822.9C1455.3,825.9 1452.2,829.1 1449.4,832.4C1444,838.8 1439.4,845.8 1435.7,853.3C1434.8,855.1 1437.4,856.6 1438.3,854.9Z" style="fill:rgb(68,68,68);fill-rule:nonzero;stroke:rgb(36,36,36);stroke-width:1px;"/>
        </g>
        <g transform="matrix(1,0,0,1,-79.5,-1.07256)">
            <path d="M652.1,957.4C638.9,942.3 628,925.3 619.8,907C619.6,907.7 619.4,908.4 619.3,909.1C623.3,907.3 627.3,906.6 631.7,906.9C633.6,907 633.6,904 631.7,903.9C626.8,903.6 622.3,904.5 617.8,906.5C617,906.9 617,907.9 617.3,908.6C625.7,927.2 636.7,944.3 650.1,959.6C651.2,961 653.4,958.9 652.1,957.4Z" style="fill:rgb(68,68,68);fill-rule:nonzero;stroke:rgb(36,36,36);stroke-width:1px;"/>
        </g>
        <g transform="matrix(1,0,0,1,-79.5,-1.07256)">
            <path d="M631.9,902.7C624,888.9 619,873.6 617.6,857.8C616.7,847.8 614.9,812 633.6,821.8C640.2,825.3 644,832.8 647.4,839.1C651.4,846.4 654.9,854 658,861.7C663.6,875.8 667.7,890.5 670.2,905.4C673.2,923.1 673.9,941.1 672.5,959.1C672.3,961 675.4,961 675.5,959.1C678.3,923 672.2,886.5 657.6,853.3C654,845.1 650,836.7 645,829.2C641.4,823.8 636.5,818.5 629.8,817.3C613.8,814.4 614,838.5 614,848.5C614.1,868.1 619.4,887.3 629.2,904.3C630.3,905.8 632.9,904.3 631.9,902.7Z" style="fill:rgb(68,68,68);fill-rule:nonzero;stroke:rgb(36,36,36);stroke-width:1px;"/>
        </g>
        <g transform="matrix(1,0,0,1,-79.5,-1.07256)">
            <path d="M666.9,877.5C666.3,870 668.5,835.8 682.7,843C694,848.7 696.4,866.4 697,877.6C697.7,890.3 697.2,903.1 696.9,915.8C696.5,929.1 695.5,942.3 690.9,954.9C690.2,956.7 693.1,957.5 693.8,955.7C699.5,940.3 699.8,923.9 700.1,907.7C700.4,892.4 701.7,876.1 697.6,861.1C695.3,852.8 687.1,834.5 675.3,840C670.3,842.4 668.1,849.2 666.5,854.1C664.1,861.8 663.3,869.7 663.9,877.7C664,879.5 667,879.5 666.9,877.5Z" style="fill:rgb(68,68,68);fill-rule:nonzero;stroke:rgb(36,36,36);stroke-width:1px;"/>
        </g>
        <g transform="matrix(1,0,0,1,-79.5,-1.07256)">
            <path d="M624.3,819.8C637.2,848.6 647.8,878.3 655.9,908.8C656.4,910.7 659.3,909.9 658.8,908C650.6,877.3 640,847.3 626.9,818.3C626.1,816.5 623.5,818 624.3,819.8Z" style="fill:rgb(68,68,68);fill-rule:nonzero;stroke:rgb(36,36,36);stroke-width:1px;"/>
        </g>
        <g transform="matrix(1,0,0,1,-79.5,-1.07256)">
            <path d="M616,859.3C631.3,864.7 643.7,875.8 650.8,890.4C651.7,892.1 654.2,890.6 653.4,888.9C645.9,873.6 632.8,862.1 616.8,856.4C615,855.8 614.2,858.7 616,859.3Z" style="fill:rgb(68,68,68);fill-rule:nonzero;stroke:rgb(36,36,36);stroke-width:1px;"/>
        </g>
        <g transform="matrix(1,0,0,1,-79.5,-1.07256)">
            <path d="M645.9,833.3C643.2,842.2 641.8,851.3 641.5,860.5C641.4,862.4 644.4,862.4 644.5,860.5C644.8,851.5 646.2,842.7 648.8,834.1C649.3,832.2 646.4,831.4 645.9,833.3Z" style="fill:rgb(68,68,68);fill-rule:nonzero;stroke:rgb(36,36,36);stroke-width:1px;"/>
        </g>
        <g transform="matrix(1,0,0,1,-79.5,-1.07256)">
            <path d="M666.1,859.3C675.5,870.3 682.2,882.9 686.2,896.8C686.7,898.7 689.6,897.9 689.1,896C685,881.6 678,868.5 668.3,857.2C667,855.7 664.9,857.8 666.1,859.3Z" style="fill:rgb(68,68,68);fill-rule:nonzero;stroke:rgb(36,36,36);stroke-width:1px;"/>
        </g>
        <g transform="matrix(1,0,0,1,-79.5,-1.07256)">
            <path d="M681,858.5C687.5,890.8 686.4,922.7 683,955.3C682.8,957.2 685.8,957.2 686,955.3C689.5,922.5 690.5,890.3 683.9,857.7C683.5,855.8 680.6,856.6 681,858.5Z" style="fill:rgb(68,68,68);fill-rule:nonzero;stroke:rgb(36,36,36);stroke-width:1px;"/>
        </g>
        <g transform="matrix(1,0,0,1,-79.5,-1.07256)">
            <path d="M486.2,598.5L486.2,619.9C486.2,621.8 489.2,621.8 489.2,619.9L489.2,598.5C489.2,596.6 486.2,596.6 486.2,598.5Z" style="fill:rgb(68,68,68);fill-rule:nonzero;stroke:rgb(36,36,36);stroke-width:1px;"/>
        </g>
        <g transform="matrix(1,0,0,1,-79.5,-1.07256)">
            <path d="M487.7,621.9L592.6,621.9C594.5,621.9 594.5,618.9 592.6,618.9L487.7,618.9C485.8,618.9 485.8,621.9 487.7,621.9Z" style="fill:rgb(68,68,68);fill-rule:nonzero;stroke:rgb(36,36,36);stroke-width:1px;"/>
        </g>
        <g transform="matrix(1,0,0,1,-79.5,-1.07256)">
            <path d="M487.7,599.7L593.3,599.7C595.2,599.7 595.2,596.7 593.3,596.7L487.7,596.7C485.8,596.7 485.8,599.7 487.7,599.7Z" style="fill:rgb(68,68,68);fill-rule:nonzero;stroke:rgb(36,36,36);stroke-width:1px;"/>
        </g>
        <g transform="matrix(1,0,0,1,-79.5,-1.07256)">
            <path d="M591.8,598L591.8,619.9C591.8,621.8 594.8,621.8 594.8,619.9L594.8,598C594.8,596 591.8,596 591.8,598Z" style="fill:rgb(68,68,68);fill-rule:nonzero;stroke:rgb(36,36,36);stroke-width:1px;"/>
        </g>
        <g transform="matrix(1,0,0,1,-79.5,-1.07256)">
            <path d="M525.7,621.5L525.7,639.8C525.7,641.7 528.7,641.7 528.7,639.8L528.7,621.5C528.7,619.6 525.7,619.6 525.7,621.5Z" style="fill:rgb(68,68,68);fill-rule:nonzero;stroke:rgb(36,36,36);stroke-width:1px;"/>
        </g>
        <g transform="matrix(1,0,0,1,-79.5,-1.07256)">
            <path d="M527.4,642.4L611.1,642.4C613,642.4 613,639.4 611.1,639.4L527.4,639.4C525.4,639.4 525.4,642.4 527.4,642.4Z" style="fill:rgb(68,68,68);fill-rule:nonzero;stroke:rgb(36,36,36);stroke-width:1px;"/>
        </g>
        <g transform="matrix(1,0,0,1,-79.5,-1.07256)">
            <path d="M593.5,622.1L612.2,622.1C614.1,622.1 614.1,619.1 612.2,619.1L593.5,619.1C591.5,619.1 591.5,622.1 593.5,622.1Z" style="fill:rgb(68,68,68);fill-rule:nonzero;stroke:rgb(36,36,36);stroke-width:1px;"/>
        </g>
        <g transform="matrix(1,0,0,1,-79.5,-1.07256)">
            <path d="M610.8,621.7L610.8,640.4C610.8,642.3 613.8,642.3 613.8,640.4L613.8,621.7C613.8,619.8 610.8,619.8 610.8,621.7Z" style="fill:rgb(68,68,68);fill-rule:nonzero;stroke:rgb(36,36,36);stroke-width:1px;"/>
        </g>
        <g transform="matrix(1,0,0,1,-79.5,-1.07256)">
            <path d="M601.2,641.3L601.2,661.6C601.2,663.5 604.2,663.5 604.2,661.6L604.2,641.3C604.2,639.3 601.2,639.3 601.2,641.3Z" style="fill:rgb(68,68,68);fill-rule:nonzero;stroke:rgb(36,36,36);stroke-width:1px;"/>
        </g>
        <g transform="matrix(1,0,0,1,-79.5,-1.07256)">
            <path d="M603.1,663.2L672.1,663.2C674,663.2 674,660.2 672.1,660.2L603.1,660.2C601.1,660.2 601.1,663.2 603.1,663.2Z" style="fill:rgb(68,68,68);fill-rule:nonzero;stroke:rgb(36,36,36);stroke-width:1px;"/>
        </g>
        <g transform="matrix(1,0,0,1,-79.5,-1.07256)">
            <path d="M612.5,642.6L672.5,642.6C674.4,642.6 674.4,639.6 672.5,639.6L612.5,639.6C610.6,639.6 610.6,642.6 612.5,642.6Z" style="fill:rgb(68,68,68);fill-rule:nonzero;stroke:rgb(36,36,36);stroke-width:1px;"/>
        </g>
        <g transform="matrix(1,0,0,1,-79.5,-1.07256)">
            <path d="M670.8,640.9L670.8,660.3C670.8,662.2 673.8,662.2 673.8,660.3L673.8,640.9C673.8,639 670.8,639 670.8,640.9Z" style="fill:rgb(68,68,68);fill-rule:nonzero;stroke:rgb(36,36,36);stroke-width:1px;"/>
        </g>
        <g transform="matrix(1,0,0,1,-79.5,-1.07256)">
            <path d="M602.6,660.1L545.3,660.1C543.4,660.1 543.4,663.1 545.3,663.1L602.6,663.1C604.5,663.1 604.5,660.1 602.6,660.1Z" style="fill:rgb(68,68,68);fill-rule:nonzero;stroke:rgb(36,36,36);stroke-width:1px;"/>
        </g>
        <g transform="matrix(1,0,0,1,-79.5,-1.07256)">
            <path d="M546.5,661.4L546.5,642.1C546.5,640.2 543.5,640.2 543.5,642.1L543.5,661.4C543.5,663.3 546.5,663.3 546.5,661.4Z" style="fill:rgb(68,68,68);fill-rule:nonzero;stroke:rgb(36,36,36);stroke-width:1px;"/>
        </g>
        <g transform="matrix(1,0,0,1,-79.5,-1.07256)">
            <path d="M423.2,169.7L423.2,386.5C423.2,388.4 426.2,388.4 426.2,386.5L426.2,169.7C426.2,167.8 423.2,167.8 423.2,169.7Z" style="fill:rgb(68,68,68);fill-rule:nonzero;stroke:rgb(36,36,36);stroke-width:1px;"/>
        </g>
        <g transform="matrix(1,0,0,1,-79.5,-1.07256)">
            <path d="M424.5,388.7L695.5,388.7C697.4,388.7 697.4,385.7 695.5,385.7L424.5,385.7C422.6,385.7 422.6,388.7 424.5,388.7Z" style="fill:rgb(68,68,68);fill-rule:nonzero;stroke:rgb(36,36,36);stroke-width:1px;"/>
        </g>
        <g transform="matrix(1,0,0,1,-79.5,-1.07256)">
            <path d="M425.2,169.7L693,169.7C694.9,169.7 694.9,166.7 693,166.7L425.2,166.7C423.3,166.7 423.3,169.7 425.2,169.7Z" style="fill:rgb(68,68,68);fill-rule:nonzero;stroke:rgb(36,36,36);stroke-width:1px;"/>
        </g>
        <g transform="matrix(1,0,0,1,-79.5,-1.07256)">
            <path d="M694.6,169.1L694.6,386.1C694.6,388 697.6,388 697.6,386.1L697.6,169.1C697.6,167.2 694.6,167.2 694.6,169.1Z" style="fill:rgb(68,68,68);fill-rule:nonzero;stroke:rgb(36,36,36);stroke-width:1px;"/>
        </g>
        <g transform="matrix(1,0,0,1,-79.5,-1.07256)">
            <path d="M438,180.7L438,376.5C438,378.4 441,378.4 441,376.5L441,180.7C441,178.7 438,178.7 438,180.7Z" style="fill:rgb(68,68,68);fill-rule:nonzero;stroke:rgb(36,36,36);stroke-width:1px;"/>
        </g>
        <g transform="matrix(1,0,0,1,-79.5,-1.07256)">
            <path d="M439.3,378.6L679.8,378.6C681.7,378.6 681.7,375.6 679.8,375.6L439.3,375.6C437.4,375.6 437.3,378.6 439.3,378.6Z" style="fill:rgb(68,68,68);fill-rule:nonzero;stroke:rgb(36,36,36);stroke-width:1px;"/>
        </g>
        <g transform="matrix(1,0,0,1,-79.5,-1.07256)">
            <path d="M439.9,180.8L677.6,180.8C679.5,180.8 679.5,177.8 677.6,177.8L439.9,177.8C438,177.8 438,180.8 439.9,180.8Z" style="fill:rgb(68,68,68);fill-rule:nonzero;stroke:rgb(36,36,36);stroke-width:1px;"/>
        </g>
        <g transform="matrix(1,0,0,1,-79.5,-1.07256)">
            <path d="M678.8,180.1L678.8,376.1C678.8,378 681.8,378 681.8,376.1L681.8,180.1C681.8,178.2 678.8,178.2 678.8,180.1Z" style="fill:rgb(68,68,68);fill-rule:nonzero;stroke:rgb(36,36,36);stroke-width:1px;"/>
        </g>
        <g transform="matrix(1,0,0,1,-79.5,-1.07256)">
            <path d="M555.7,181L555.7,276.6C555.7,278.5 558.7,278.5 558.7,276.6L558.7,181C558.7,179 555.7,179 555.7,181Z" style="fill:rgb(68,68,68);fill-rule:nonzero;stroke:rgb(36,36,36);stroke-width:1px;"/>
        </g>
        <g transform="matrix(1,0,0,1,-79.5,-1.07256)">
            <path d="M557.2,275L442.8,275C440.9,275 440.9,278 442.8,278L557.2,278C559.1,278 559.1,275 557.2,275Z" style="fill:rgb(68,68,68);fill-rule:nonzero;stroke:rgb(36,36,36);stroke-width:1px;"/>
        </g>
        <g transform="matrix(1,0,0,1,-79.5,-1.07256)">
            <path d="M570.6,181L570.6,275.7C570.6,277.6 573.6,277.6 573.6,275.7L573.6,181C573.6,179 570.6,179 570.6,181Z" style="fill:rgb(68,68,68);fill-rule:nonzero;stroke:rgb(36,36,36);stroke-width:1px;"/>
        </g>
        <g transform="matrix(1,0,0,1,-79.5,-1.07256)">
            <path d="M572.1,278.9L677.7,278.9C679.6,278.9 679.6,275.9 677.7,275.9L572.1,275.9C570.1,275.9 570.1,278.9 572.1,278.9Z" style="fill:rgb(68,68,68);fill-rule:nonzero;stroke:rgb(36,36,36);stroke-width:1px;"/>
        </g>
        <g transform="matrix(1,0,0,1,-79.5,-1.07256)">
            <path d="M441.9,292.9L556.7,292.9C558.6,292.9 558.6,289.9 556.7,289.9L441.9,289.9C440,289.9 439.9,292.9 441.9,292.9Z" style="fill:rgb(68,68,68);fill-rule:nonzero;stroke:rgb(36,36,36);stroke-width:1px;"/>
        </g>
        <g transform="matrix(1,0,0,1,-79.5,-1.07256)">
            <path d="M555.2,291.8L555.2,376C555.2,377.9 558.2,377.9 558.2,376L558.2,291.8C558.2,289.9 555.2,289.9 555.2,291.8Z" style="fill:rgb(68,68,68);fill-rule:nonzero;stroke:rgb(36,36,36);stroke-width:1px;"/>
        </g>
        <g transform="matrix(1,0,0,1,-79.5,-1.07256)">
            <path d="M570.1,294L570.1,376C570.1,377.9 573.1,377.9 573.1,376L573.1,294C573.1,292.1 570.1,292.1 570.1,294Z" style="fill:rgb(68,68,68);fill-rule:nonzero;stroke:rgb(36,36,36);stroke-width:1px;"/>
        </g>
        <g transform="matrix(1,0,0,1,-79.5,-1.07256)">
            <path d="M571.2,296L679.5,296C681.4,296 681.4,293 679.5,293L571.2,293C569.3,293 569.2,296 571.2,296Z" style="fill:rgb(68,68,68);fill-rule:nonzero;stroke:rgb(36,36,36);stroke-width:1px;"/>
        </g>
        <g transform="matrix(1,0,0,1,-79.5,-1.07256)">
            <path d="M646,181.7C623.5,207.1 602.4,233.7 582.6,261.3C581.5,262.9 584.1,264.4 585.2,262.8C604.8,235.4 625.8,209 648.1,183.8C649.4,182.4 647.3,180.2 646,181.7Z" style="fill:rgb(68,68,68);fill-rule:nonzero;stroke:rgb(36,36,36);stroke-width:1px;"/>
        </g>
        <g transform="matrix(1,0,0,1,-79.5,-1.07256)">
            <path d="M645.8,218.7C635.4,231.3 625,243.9 614.6,256.4C613.4,257.9 615.5,260 616.7,258.5C627.1,245.9 637.5,233.3 647.9,220.8C649.1,219.3 647,217.2 645.8,218.7Z" style="fill:rgb(68,68,68);fill-rule:nonzero;stroke:rgb(36,36,36);stroke-width:1px;"/>
        </g>
        <g transform="matrix(1,0,0,1,-79.5,-1.07256)">
            <path d="M453.4,374.9C479.6,348.7 505.8,322.4 532,296.2C533.4,294.8 531.2,292.7 529.9,294.1C503.7,320.3 477.5,346.6 451.3,372.8C450,374.1 452.1,376.2 453.4,374.9Z" style="fill:rgb(68,68,68);fill-rule:nonzero;stroke:rgb(36,36,36);stroke-width:1px;"/>
        </g>
        <g transform="matrix(1,0,0,1,-79.5,-1.07256)">
            <path d="M498.7,365.7C507.6,354.3 517,343.5 527.1,333.2C528.5,331.8 526.3,329.7 525,331.1C514.9,341.4 505.4,352.2 496.6,363.6C495.4,365.1 497.5,367.3 498.7,365.7Z" style="fill:rgb(68,68,68);fill-rule:nonzero;stroke:rgb(36,36,36);stroke-width:1px;"/>
        </g>
        <g transform="matrix(1,0,0,1,-79.5,-1.07256)">
            <path d="M1181.4,166.4L1181.4,383.2C1181.4,385.1 1184.4,385.1 1184.4,383.2L1184.4,166.4C1184.4,164.5 1181.4,164.5 1181.4,166.4Z" style="fill:rgb(68,68,68);fill-rule:nonzero;stroke:rgb(36,36,36);stroke-width:1px;"/>
        </g>
        <g transform="matrix(1,0,0,1,-79.5,-1.07256)">
            <path d="M1182.7,385.4L1453.7,385.4C1455.6,385.4 1455.6,382.4 1453.7,382.4L1182.7,382.4C1180.8,382.4 1180.8,385.4 1182.7,385.4Z" style="fill:rgb(68,68,68);fill-rule:nonzero;stroke:rgb(36,36,36);stroke-width:1px;"/>
        </g>
        <g transform="matrix(1,0,0,1,-79.5,-1.07256)">
            <path d="M1183.4,166.5L1451.2,166.5C1453.1,166.5 1453.1,163.5 1451.2,163.5L1183.4,163.5C1181.5,163.5 1181.5,166.5 1183.4,166.5Z" style="fill:rgb(68,68,68);fill-rule:nonzero;stroke:rgb(36,36,36);stroke-width:1px;"/>
        </g>
        <g transform="matrix(1,0,0,1,-79.5,-1.07256)">
            <path d="M1452.8,165.8L1452.8,382.8C1452.8,384.7 1455.8,384.7 1455.8,382.8L1455.8,165.8C1455.8,163.9 1452.8,163.9 1452.8,165.8Z" style="fill:rgb(68,68,68);fill-rule:nonzero;stroke:rgb(36,36,36);stroke-width:1px;"/>
        </g>
        <g transform="matrix(1,0,0,1,-79.5,-1.07256)">
            <path d="M1196.2,177.4L1196.2,373.2C1196.2,375.1 1199.2,375.1 1199.2,373.2L1199.2,177.4C1199.2,175.4 1196.2,175.4 1196.2,177.4Z" style="fill:rgb(68,68,68);fill-rule:nonzero;stroke:rgb(36,36,36);stroke-width:1px;"/>
        </g>
        <g transform="matrix(1,0,0,1,-79.5,-1.07256)">
            <path d="M1197.5,375.3L1438,375.3C1439.9,375.3 1439.9,372.3 1438,372.3L1197.5,372.3C1195.5,372.3 1195.5,375.3 1197.5,375.3Z" style="fill:rgb(68,68,68);fill-rule:nonzero;stroke:rgb(36,36,36);stroke-width:1px;"/>
        </g>
        <g transform="matrix(1,0,0,1,-79.5,-1.07256)">
            <path d="M1198.1,177.5L1435.8,177.5C1437.7,177.5 1437.7,174.5 1435.8,174.5L1198.1,174.5C1196.2,174.5 1196.2,177.5 1198.1,177.5Z" style="fill:rgb(68,68,68);fill-rule:nonzero;stroke:rgb(36,36,36);stroke-width:1px;"/>
        </g>
        <g transform="matrix(1,0,0,1,-79.5,-1.07256)">
            <path d="M1437,176.8L1437,372.8C1437,374.7 1440,374.7 1440,372.8L1440,176.8C1440,174.9 1437,174.9 1437,176.8Z" style="fill:rgb(68,68,68);fill-rule:nonzero;stroke:rgb(36,36,36);stroke-width:1px;"/>
        </g>
        <g transform="matrix(1,0,0,1,-79.5,-1.07256)">
            <path d="M1313.9,177.7L1313.9,273.3C1313.9,275.2 1316.9,275.2 1316.9,273.3L1316.9,177.7C1316.9,175.7 1313.9,175.7 1313.9,177.7Z" style="fill:rgb(68,68,68);fill-rule:nonzero;stroke:rgb(36,36,36);stroke-width:1px;"/>
        </g>
        <g transform="matrix(1,0,0,1,-79.5,-1.07256)">
            <path d="M1315.4,271.7L1201,271.7C1199.1,271.7 1199.1,274.7 1201,274.7L1315.4,274.7C1317.3,274.7 1317.3,271.7 1315.4,271.7Z" style="fill:rgb(68,68,68);fill-rule:nonzero;stroke:rgb(36,36,36);stroke-width:1px;"/>
        </g>
        <g transform="matrix(1,0,0,1,-79.5,-1.07256)">
            <path d="M1328.8,177.7L1328.8,272.4C1328.8,274.3 1331.8,274.3 1331.8,272.4L1331.8,177.7C1331.8,175.7 1328.8,175.7 1328.8,177.7Z" style="fill:rgb(68,68,68);fill-rule:nonzero;stroke:rgb(36,36,36);stroke-width:1px;"/>
        </g>
        <g transform="matrix(1,0,0,1,-79.5,-1.07256)">
            <path d="M1330.3,275.6L1435.9,275.6C1437.8,275.6 1437.8,272.6 1435.9,272.6L1330.3,272.6C1328.3,272.6 1328.3,275.6 1330.3,275.6Z" style="fill:rgb(68,68,68);fill-rule:nonzero;stroke:rgb(36,36,36);stroke-width:1px;"/>
        </g>
        <g transform="matrix(1,0,0,1,-79.5,-1.07256)">
            <path d="M1200.1,289.6L1314.9,289.6C1316.8,289.6 1316.8,286.6 1314.9,286.6L1200.1,286.6C1198.1,286.6 1198.1,289.6 1200.1,289.6Z" style="fill:rgb(68,68,68);fill-rule:nonzero;stroke:rgb(36,36,36);stroke-width:1px;"/>
        </g>
        <g transform="matrix(1,0,0,1,-79.5,-1.07256)">
            <path d="M1313.4,288.6L1313.4,372.8C1313.4,374.7 1316.4,374.7 1316.4,372.8L1316.4,288.6C1316.4,286.6 1313.4,286.6 1313.4,288.6Z" style="fill:rgb(68,68,68);fill-rule:nonzero;stroke:rgb(36,36,36);stroke-width:1px;"/>
        </g>
        <g transform="matrix(1,0,0,1,-79.5,-1.07256)">
            <path d="M1328.3,290.8L1328.3,372.8C1328.3,374.7 1331.3,374.7 1331.3,372.8L1331.3,290.8C1331.3,288.8 1328.3,288.8 1328.3,290.8Z" style="fill:rgb(68,68,68);fill-rule:nonzero;stroke:rgb(36,36,36);stroke-width:1px;"/>
        </g>
        <g transform="matrix(1,0,0,1,-79.5,-1.07256)">
            <path d="M1329.4,292.7L1437.7,292.7C1439.6,292.7 1439.6,289.7 1437.7,289.7L1329.4,289.7C1327.4,289.7 1327.4,292.7 1329.4,292.7Z" style="fill:rgb(68,68,68);fill-rule:nonzero;stroke:rgb(36,36,36);stroke-width:1px;"/>
        </g>
        <g transform="matrix(1,0,0,1,-79.5,-1.07256)">
            <path d="M1404.2,178.4C1381.7,203.8 1360.6,230.4 1340.8,258C1339.7,259.6 1342.3,261.1 1343.4,259.5C1363,232.1 1384,205.7 1406.3,180.5C1407.6,179.1 1405.5,177 1404.2,178.4Z" style="fill:rgb(68,68,68);fill-rule:nonzero;stroke:rgb(36,36,36);stroke-width:1px;"/>
        </g>
        <g transform="matrix(1,0,0,1,-79.5,-1.07256)">
            <path d="M1404,215.4C1393.6,228 1383.2,240.6 1372.8,253.1C1371.6,254.6 1373.7,256.7 1374.9,255.2C1385.3,242.6 1395.7,230 1406.1,217.5C1407.3,216 1405.2,213.9 1404,215.4Z" style="fill:rgb(68,68,68);fill-rule:nonzero;stroke:rgb(36,36,36);stroke-width:1px;"/>
        </g>
        <g transform="matrix(1,0,0,1,-79.5,-1.07256)">
            <path d="M1211.6,371.6C1237.8,345.4 1264,319.1 1290.2,292.9C1291.6,291.5 1289.4,289.4 1288.1,290.8C1261.9,317 1235.7,343.3 1209.5,369.5C1208.2,370.8 1210.3,372.9 1211.6,371.6Z" style="fill:rgb(68,68,68);fill-rule:nonzero;stroke:rgb(36,36,36);stroke-width:1px;"/>
        </g>
        <g transform="matrix(1,0,0,1,-79.5,-1.07256)">
            <path d="M1256.9,362.5C1265.8,351.1 1275.2,340.3 1285.3,330C1286.7,328.6 1284.5,326.5 1283.2,327.9C1273.1,338.2 1263.6,349 1254.8,360.4C1253.6,361.8 1255.7,364 1256.9,362.5Z" style="fill:rgb(68,68,68);fill-rule:nonzero;stroke:rgb(36,36,36);stroke-width:1px;"/>
        </g>
        <g transform="matrix(1,0,0,1,-79.5,-1.07256)">
            <path d="M1176,490.2L1282,490.2C1283.9,490.2 1283.9,487.2 1282,487.2L1176,487.2C1174.1,487.2 1174.1,490.2 1176,490.2Z" style="fill:rgb(68,68,68);fill-rule:nonzero;stroke:rgb(36,36,36);stroke-width:1px;"/>
        </g>
        <g transform="matrix(1,0,0,1,-79.5,-1.07256)">
            <path d="M1227.8,490L1227.8,510C1227.8,511.9 1230.8,511.9 1230.8,510L1230.8,490C1230.8,488.1 1227.8,488.1 1227.8,490Z" style="fill:rgb(68,68,68);fill-rule:nonzero;stroke:rgb(36,36,36);stroke-width:1px;"/>
        </g>
        <g transform="matrix(1,0,0,1,-79.5,-1.07256)">
            <path d="M1229.3,511.5L1312.6,511.5C1314.5,511.5 1314.5,508.5 1312.6,508.5L1229.3,508.5C1227.4,508.5 1227.4,511.5 1229.3,511.5Z" style="fill:rgb(68,68,68);fill-rule:nonzero;stroke:rgb(36,36,36);stroke-width:1px;"/>
        </g>
        <g transform="matrix(1,0,0,1,-79.5,-1.07256)">
            <path d="M1281.8,489.3L1281.8,508.6C1281.8,510.5 1284.8,510.5 1284.8,508.6L1284.8,489.3C1284.8,487.4 1281.8,487.4 1281.8,489.3Z" style="fill:rgb(68,68,68);fill-rule:nonzero;stroke:rgb(36,36,36);stroke-width:1px;"/>
        </g>
        <g transform="matrix(1,0,0,1,-79.5,-1.07256)">
            <path d="M1177.5,488L1177.5,472C1177.5,470.1 1174.5,470.1 1174.5,472L1174.5,488C1174.5,489.9 1177.5,489.9 1177.5,488Z" style="fill:rgb(68,68,68);fill-rule:nonzero;stroke:rgb(36,36,36);stroke-width:1px;"/>
        </g>
        <g transform="matrix(1,0,0,1,-79.5,-1.07256)">
            <path d="M1177.3,472.8L1254.6,472.8C1256.5,472.8 1256.5,469.8 1254.6,469.8L1177.3,469.8C1175.4,469.8 1175.4,472.8 1177.3,472.8Z" style="fill:rgb(68,68,68);fill-rule:nonzero;stroke:rgb(36,36,36);stroke-width:1px;"/>
        </g>
        <g transform="matrix(1,0,0,1,-79.5,-1.07256)">
            <path d="M1253.8,473.3L1253.8,488.6C1253.8,490.5 1256.8,490.5 1256.8,488.6L1256.8,473.3C1256.8,471.4 1253.8,471.4 1253.8,473.3Z" style="fill:rgb(68,68,68);fill-rule:nonzero;stroke:rgb(36,36,36);stroke-width:1px;"/>
        </g>
        <g transform="matrix(1,0,0,1,-79.5,-1.07256)">
            <path d="M1160,512.2L1234,512.2C1235.9,512.2 1235.9,509.2 1234,509.2L1160,509.2C1158.1,509.2 1158.1,512.2 1160,512.2Z" style="fill:rgb(68,68,68);fill-rule:nonzero;stroke:rgb(36,36,36);stroke-width:1px;"/>
        </g>
        <g transform="matrix(1,0,0,1,-79.5,-1.07256)">
            <path d="M1157.8,512L1157.8,528.7C1157.8,530.6 1160.8,530.6 1160.8,528.7L1160.8,512C1160.8,510.1 1157.8,510.1 1157.8,512Z" style="fill:rgb(68,68,68);fill-rule:nonzero;stroke:rgb(36,36,36);stroke-width:1px;"/>
        </g>
        <g transform="matrix(1,0,0,1,-79.5,-1.07256)">
            <path d="M1159.3,531.5L1230,531.5C1231.9,531.5 1231.9,528.5 1230,528.5L1159.3,528.5C1157.4,528.5 1157.4,531.5 1159.3,531.5Z" style="fill:rgb(68,68,68);fill-rule:nonzero;stroke:rgb(36,36,36);stroke-width:1px;"/>
        </g>
        <g transform="matrix(1,0,0,1,-79.5,-1.07256)">
            <path d="M1228.5,512L1228.5,529.3C1228.5,531.2 1231.5,531.2 1231.5,529.3L1231.5,512C1231.5,510.1 1228.5,510.1 1228.5,512Z" style="fill:rgb(68,68,68);fill-rule:nonzero;stroke:rgb(36,36,36);stroke-width:1px;"/>
        </g>
        <g transform="matrix(1,0,0,1,-79.5,-1.07256)">
            <path d="M664.8,446.1L795.5,446.1C797.4,446.1 797.4,443.1 795.5,443.1L664.8,443.1C662.9,443.1 662.9,446.1 664.8,446.1Z" style="fill:rgb(68,68,68);fill-rule:nonzero;stroke:rgb(36,36,36);stroke-width:1px;"/>
        </g>
        <g transform="matrix(1,0,0,1,-79.5,-1.07256)">
            <path d="M665.7,444.6L665.7,427.8C665.7,425.9 662.7,425.9 662.7,427.8L662.7,444.6C662.7,446.5 665.7,446.5 665.7,444.6Z" style="fill:rgb(68,68,68);fill-rule:nonzero;stroke:rgb(36,36,36);stroke-width:1px;"/>
        </g>
        <g transform="matrix(1,0,0,1,-79.5,-1.07256)">
            <path d="M665.9,427.5L735.9,427.5C737.8,427.5 737.8,424.5 735.9,424.5L665.9,424.5C664,424.5 664,427.5 665.9,427.5Z" style="fill:rgb(68,68,68);fill-rule:nonzero;stroke:rgb(36,36,36);stroke-width:1px;"/>
        </g>
        <g transform="matrix(1,0,0,1,-79.5,-1.07256)">
            <path d="M734.4,427.8L734.4,444C734.4,445.9 737.4,445.9 737.4,444L737.4,427.8C737.4,425.8 734.4,425.8 734.4,427.8Z" style="fill:rgb(68,68,68);fill-rule:nonzero;stroke:rgb(36,36,36);stroke-width:1px;"/>
        </g>
        <g transform="matrix(1,0,0,1,-79.5,-1.07256)">
            <path d="M715.3,446.9L715.3,463.7C715.3,465.6 718.3,465.6 718.3,463.7L718.3,446.9C718.3,444.9 715.3,444.9 715.3,446.9Z" style="fill:rgb(68,68,68);fill-rule:nonzero;stroke:rgb(36,36,36);stroke-width:1px;"/>
        </g>
        <g transform="matrix(1,0,0,1,-79.5,-1.07256)">
            <path d="M717.4,466.3L793.7,466.3C795.6,466.3 795.6,463.3 793.7,463.3L717.4,463.3C715.5,463.3 715.5,466.3 717.4,466.3Z" style="fill:rgb(68,68,68);fill-rule:nonzero;stroke:rgb(36,36,36);stroke-width:1px;"/>
        </g>
        <g transform="matrix(1,0,0,1,-79.5,-1.07256)">
            <path d="M794,446.3L794,465.4C794,467.3 797,467.3 797,465.4L797,446.3C797,444.4 794,444.4 794,446.3Z" style="fill:rgb(68,68,68);fill-rule:nonzero;stroke:rgb(36,36,36);stroke-width:1px;"/>
        </g>
        <g transform="matrix(1,0,0,1,-79.5,-1.07256)">
            <path d="M733.8,465.9L733.8,481.5C733.8,483.4 736.8,483.4 736.8,481.5L736.8,465.9C736.8,464 733.8,464 733.8,465.9Z" style="fill:rgb(68,68,68);fill-rule:nonzero;stroke:rgb(36,36,36);stroke-width:1px;"/>
        </g>
        <g transform="matrix(1,0,0,1,-79.5,-1.07256)">
            <path d="M734.2,481.2L667.7,481.2C665.8,481.2 665.8,484.2 667.7,484.2L734.2,484.2C736.1,484.2 736.1,481.2 734.2,481.2Z" style="fill:rgb(68,68,68);fill-rule:nonzero;stroke:rgb(36,36,36);stroke-width:1px;"/>
        </g>
        <g transform="matrix(1,0,0,1,-79.5,-1.07256)">
            <path d="M720.3,463.9L668.2,463.9C666.3,463.9 666.3,466.9 668.2,466.9L720.3,466.9C722.2,466.9 722.2,463.9 720.3,463.9Z" style="fill:rgb(68,68,68);fill-rule:nonzero;stroke:rgb(36,36,36);stroke-width:1px;"/>
        </g>
        <g transform="matrix(1,0,0,1,-79.5,-1.07256)">
            <path d="M666.8,465.4L666.8,482.2C666.8,484.1 669.8,484.1 669.8,482.2L669.8,465.4C669.8,463.4 666.8,463.4 666.8,465.4Z" style="fill:rgb(68,68,68);fill-rule:nonzero;stroke:rgb(36,36,36);stroke-width:1px;"/>
        </g>
        <g transform="matrix(1,0,0,1,-79.5,-1.07256)">
            <path d="M1358.4,691.3L1440.9,691.3C1442.8,691.3 1442.8,688.3 1440.9,688.3L1358.4,688.3C1356.5,688.3 1356.5,691.3 1358.4,691.3Z" style="fill:rgb(68,68,68);fill-rule:nonzero;stroke:rgb(36,36,36);stroke-width:1px;"/>
        </g>
        <g transform="matrix(1,0,0,1,-79.5,-1.07256)">
            <path d="M1407.5,689L1407.5,670.4C1407.5,668.5 1404.5,668.5 1404.5,670.4L1404.5,689C1404.5,690.9 1407.5,690.9 1407.5,689Z" style="fill:rgb(68,68,68);fill-rule:nonzero;stroke:rgb(36,36,36);stroke-width:1px;"/>
        </g>
        <g transform="matrix(1,0,0,1,-79.5,-1.07256)">
            <path d="M1406.8,671.5L1477.4,671.5C1479.3,671.5 1479.3,668.5 1477.4,668.5L1406.8,668.5C1404.8,668.5 1404.8,671.5 1406.8,671.5Z" style="fill:rgb(68,68,68);fill-rule:nonzero;stroke:rgb(36,36,36);stroke-width:1px;"/>
        </g>
        <g transform="matrix(1,0,0,1,-79.5,-1.07256)">
            <path d="M1475.8,670.8L1475.8,686.7C1475.8,688.6 1478.8,688.6 1478.8,686.7L1478.8,670.8C1478.8,668.8 1475.8,668.8 1475.8,670.8Z" style="fill:rgb(68,68,68);fill-rule:nonzero;stroke:rgb(36,36,36);stroke-width:1px;"/>
        </g>
        <g transform="matrix(1,0,0,1,-79.5,-1.07256)">
            <path d="M1438.9,690.9L1476.2,690.9C1478.1,690.9 1478.1,687.9 1476.2,687.9L1438.9,687.9C1436.9,687.9 1436.9,690.9 1438.9,690.9Z" style="fill:rgb(68,68,68);fill-rule:nonzero;stroke:rgb(36,36,36);stroke-width:1px;"/>
        </g>
        <g transform="matrix(1,0,0,1,-79.5,-1.07256)">
            <path d="M1355.3,691.4L1355.3,705.7C1355.3,707.6 1358.3,707.6 1358.3,705.7L1358.3,691.4C1358.3,689.5 1355.3,689.4 1355.3,691.4Z" style="fill:rgb(68,68,68);fill-rule:nonzero;stroke:rgb(36,36,36);stroke-width:1px;"/>
        </g>
        <g transform="matrix(1,0,0,1,-79.5,-1.07256)">
            <path d="M1357.2,708.7L1435.3,708.7C1437.2,708.7 1437.2,705.7 1435.3,705.7L1357.2,705.7C1355.3,705.7 1355.3,708.7 1357.2,708.7Z" style="fill:rgb(68,68,68);fill-rule:nonzero;stroke:rgb(36,36,36);stroke-width:1px;"/>
        </g>
        <g transform="matrix(1,0,0,1,-79.5,-1.07256)">
            <path d="M1434.6,690.2L1434.6,706.5C1434.6,708.4 1437.6,708.4 1437.6,706.5L1437.6,690.2C1437.6,688.3 1434.6,688.3 1434.6,690.2Z" style="fill:rgb(68,68,68);fill-rule:nonzero;stroke:rgb(36,36,36);stroke-width:1px;"/>
        </g>
        <g transform="matrix(1,0,0,1,-79.5,-1.07256)">
            <path d="M1366.3,647.3L1442,647.3C1443.9,647.3 1443.9,644.3 1442,644.3L1366.3,644.3C1364.4,644.3 1364.4,647.3 1366.3,647.3Z" style="fill:rgb(68,68,68);fill-rule:nonzero;stroke:rgb(36,36,36);stroke-width:1px;"/>
        </g>
        <g transform="matrix(1,0,0,1,-79.5,-1.07256)">
            <path d="M1440.5,647L1440.5,670C1440.5,671.9 1443.5,671.9 1443.5,670L1443.5,647C1443.5,645 1440.5,645 1440.5,647Z" style="fill:rgb(68,68,68);fill-rule:nonzero;stroke:rgb(36,36,36);stroke-width:1px;"/>
        </g>
        <g transform="matrix(1,0,0,1,-79.5,-1.07256)">
            <path d="M1365.6,646.2L1365.6,667.6C1365.6,669.5 1368.6,669.5 1368.6,667.6L1368.6,646.2C1368.6,644.3 1365.6,644.3 1365.6,646.2Z" style="fill:rgb(68,68,68);fill-rule:nonzero;stroke:rgb(36,36,36);stroke-width:1px;"/>
        </g>
    </g>
    <g id="ground" transform="matrix(1,0,0,1,-50,-100)">
        <g transform="matrix(1,0,0,1,-79.5,-1.07256)">
            <g>
                <path d="M533.6,960.6L582.8,960.6C584.7,960.6 584.7,957.6 582.8,957.6L533.6,957.6C531.7,957.6 531.7,960.6 533.6,960.6Z" style="fill:rgb(22,22,22);fill-rule:nonzero;"/>
            </g>
        </g>
        <g transform="matrix(1,0,0,1,-79.5,-1.07256)">
            <path d="M407.5,960.8L1504.6,960.8C1508.5,960.8 1508.5,954.8 1504.6,954.8L407.5,954.8C403.6,954.8 403.6,960.8 407.5,960.8Z" style="fill:rgb(92,92,92);fill-rule:nonzero;"/>
        </g>
        <g transform="matrix(1,0,0,1,-79.5,-1.07256)">
            <path d="M1312.9,981L1521,981C1524.9,981 1524.9,975 1521,975L1312.9,975C1309.1,975 1309.1,981 1312.9,981Z" style="fill:rgb(92,92,92);fill-rule:nonzero;"/>
        </g>
        <g transform="matrix(1,0,0,1,-79.5,-1.07256)">
            <path d="M599.2,1056.6L832.5,1056.6C836.4,1056.6 836.4,1050.6 832.5,1050.6L599.2,1050.6C595.3,1050.6 595.3,1056.6 599.2,1056.6Z" style="fill:rgb(92,92,92);fill-rule:nonzero;"/>
        </g>
        <g transform="matrix(1,0,0,1,-79.5,-1.07256)">
            <path d="M178,1027.3L333.7,1027.3C337.6,1027.3 337.6,1021.3 333.7,1021.3L178,1021.3C174.1,1021.3 174.1,1027.3 178,1027.3Z" style="fill:rgb(92,92,92);fill-rule:nonzero;"/>
        </g>
        <g transform="matrix(1,0,0,1,-79.5,-1.07256)">
            <path d="M366.5,1000L537.2,1000C541.1,1000 541.1,994 537.2,994L366.5,994C362.6,994 362.6,1000 366.5,1000Z" style="fill:rgb(92,92,92);fill-rule:nonzero;"/>
        </g>
    </g>
    <g transform="matrix(1,0,0,1,-129.5,-101.073)">
        <g id="rope">
            <g>
                <g>
                    <path d="M329.9,919C406.7,876.9 480,828.6 551.7,778.3C623.5,727.9 694,675.5 765.7,624.9C805.9,596.6 846.5,568.8 887.9,542.3C889.5,541.3 888,538.7 886.4,539.7C812.5,587 741.3,638.3 670.2,689.7C599.2,741.1 528.2,792.7 454.7,840.4C413.5,867.1 371.6,892.7 328.5,916.3C326.7,917.3 328.2,919.9 329.9,919Z" style="fill:rgb(170,170,170);fill-rule:nonzero;"/>
                </g>
            </g>
        </g>
    </g>
    <g id="dog" transform="matrix(1,0,0,1,-50,-100)">
        <g transform="matrix(1,0,0,1,-79.5,-1.07256)">
            <path d="M274.3,898.4C268.3,901.7 264.3,906 262.2,908.3C259,911.8 256.8,914.1 255.1,917.6C252.5,923.2 252.8,929.5 253.6,941.9C254.2,951.1 254.8,950.2 254.4,952.3C252.2,963.7 239.7,965.8 240,973.5C240.2,978.3 245,982.2 249.1,983.6C255.4,985.8 263,983 267.5,976.5C262.7,978.9 255.7,983.5 251.3,991.7C249.7,994.7 247.6,998.6 249,1000.5C251.4,1003.8 262.3,999.9 272,995.7C271.5,998 271.4,1000.8 273,1002.8C276.9,1007.7 288.4,1003.8 291.4,1002.8C294.8,1001.6 295.3,1001 310.6,991.4C318.6,986.4 321.4,984.7 326,981.3C329.9,978.4 332.9,975.9 335.1,974C342.3,974.2 351,973.8 360.6,972C378.7,968.5 392.6,961.4 401.5,955.8C402.2,958.7 402.8,961.7 403.5,964.6C394.8,970 388.1,974 383.5,976.7C380.6,978.4 377.6,980.2 377.9,981.5C378.4,983.4 385.2,983.3 389.5,983.3C394.3,983.3 398.3,982.7 401.1,982.3C401.3,983 402,984.9 403.9,985.8C406.7,987.3 410.3,985.6 410.2,985.3C410.2,985.1 408.7,985.1 408.7,985C408.7,984.8 419.6,984.8 427.1,984.2C433.4,983.7 442.6,982.5 453.9,978.9C455.8,971.2 456.2,965.2 456.2,961C456.2,957.9 456,956.3 456.5,953.2C457.4,947.1 459.3,945.1 460.3,940.6C461,937.6 461.2,933.1 459.3,927.2C462.6,925.9 464.8,924.1 466.1,922.9C466.4,922.6 473.2,916 472.4,907C472.2,905.1 472,902.6 470.4,901.7C467.8,900.3 463.3,903.9 461.1,906.5C457.2,911 457,916.6 457.1,919.1C454.4,914.9 449,907.7 439.7,903.2C436,901.4 432.3,900.3 428.3,899.7C409.5,896.5 387.4,903 373.5,908C355.3,914.6 346.6,920.3 335.4,918.4C332,917.8 324.6,916.5 319.5,910.8C317.5,908.6 317.3,907.3 314.7,904.2C313.8,903.1 309.1,897.6 303.1,894.9C290.9,889.3 277.1,896.9 274.3,898.4Z" style="fill:white;fill-rule:nonzero;stroke:rgb(50,50,50);stroke-width:1px;"/>
        </g>
        <g transform="matrix(1,0,0,1,-79.5,-1.07256)">
            <g>
                <path d="M325.5,916.5C323.2,921.8 320,926.6 316,930.9C314.7,932.3 316.8,934.4 318.1,933C322.3,928.6 325.6,923.6 328,918C328.9,916.2 326.3,914.7 325.5,916.5Z" style="fill:rgb(236,97,91);fill-rule:nonzero;"/>
            </g>
        </g>
        <g transform="matrix(1,0,0,1,-79.5,-1.07256)">
            <g>
                <path d="M326.9,917.7C324.6,924.1 321.1,929.7 316.4,934.5C315.1,935.9 317.2,938 318.5,936.6C323.6,931.4 327.3,925.3 329.8,918.5C330.4,916.7 327.5,915.9 326.9,917.7Z" style="fill:rgb(236,97,91);fill-rule:nonzero;"/>
            </g>
        </g>
        <g transform="matrix(1,0,0,1,-79.5,-1.07256)">
            <g>
                <path d="M277.6,921.9C279.5,934.1 281.3,946.7 287.2,957.8C291.4,965.8 300.2,973.4 309.6,968.5C318.9,963.6 320.2,951.6 319.6,942.2C318.9,931.9 315.3,922 307.8,914.7C306.4,913.4 304.3,915.5 305.7,916.8C312,923 315.4,931.2 316.4,939.9C317.4,948.8 317.1,961.7 307.7,966.1C296.3,971.3 289.2,956.3 286.4,947.9C283.4,939.2 282,930.2 280.7,921.1C280.2,919.2 277.3,920 277.6,921.9Z" style="fill:rgb(22,22,22);fill-rule:nonzero;"/>
            </g>
        </g>
        <g transform="matrix(1,0,0,1,-79.5,-1.07256)">
            <g>
                <path d="M273.8,896.8C262.5,904.7 252.2,914.9 250.7,929.3C250.4,932.7 250.6,936.1 251.4,939.3C252.6,944 255.2,947.9 252.4,952.7C248,960.3 241.7,967.4 236.5,974.5C235.4,976.1 238,977.6 239.1,976C244,969.3 249.1,962.7 253.8,955.9C257.8,950.2 256.7,946.4 254.8,940C249.4,922.7 262.3,908.4 275.4,899.3C276.9,898.3 275.4,895.7 273.8,896.8Z" style="fill:rgb(22,22,22);fill-rule:nonzero;"/>
            </g>
        </g>
        <g transform="matrix(1,0,0,1,-79.5,-1.07256)">
            <g>
                <path d="M236.4,977.1C240.6,980.9 245.2,985 251.1,985.6C256.5,986.1 261.7,983.2 265.9,980.2C275.4,973.5 282.2,964 286.6,953.3C287.3,951.5 284.4,950.7 283.7,952.5C280.2,961.1 274.8,969 267.7,975C263.7,978.3 258.5,982.3 253.1,982.6C247.2,983 242.5,978.6 238.5,974.9C237.1,973.7 235,975.8 236.4,977.1Z" style="fill:rgb(22,22,22);fill-rule:nonzero;"/>
            </g>
        </g>
        <g transform="matrix(1,0,0,1,-79.5,-1.07256)">
            <g>
                <path d="M255.6,941.7C257.1,944.5 258.8,947.1 260.9,949.4C262.2,950.9 264.3,948.7 263,947.3C261.1,945.1 259.5,942.7 258.2,940.2C257.2,938.5 254.7,940 255.6,941.7Z" style="fill:rgb(22,22,22);fill-rule:nonzero;"/>
            </g>
        </g>
        <g transform="matrix(1,0,0,1,-79.5,-1.07256)">
            <g>
                <path d="M241,971.8C243,974.1 243.6,977 243.3,979.9C243.1,981.8 246.1,981.8 246.3,979.9C246.7,976.2 245.6,972.5 243.1,969.7C241.8,968.3 239.7,970.4 241,971.8Z" style="fill:rgb(22,22,22);fill-rule:nonzero;"/>
            </g>
        </g>
        <g transform="matrix(1,0,0,1,-79.5,-1.07256)">
            <g>
                <path d="M238.3,976.2C239.5,977.1 240.6,978.1 241.8,979C243,980 245.2,978.7 244.2,977.2C243.4,976 242.9,974.6 242.9,973.1C242,973.4 241,973.6 240.1,973.9C240.4,974.3 240.7,974.7 240.9,975.1C242,976.7 244.6,975.2 243.5,973.6C243.2,973.2 242.9,972.8 242.7,972.4C241.9,971.3 239.9,971.6 239.9,973.2C239.9,975.2 240.5,977.1 241.6,978.8C242.4,978.2 243.2,977.6 244,977C242.8,976.1 241.7,975.1 240.5,974.2C239.9,973.7 239,973.6 238.4,974.2C237.8,974.6 237.7,975.7 238.3,976.2Z" style="fill:rgb(22,22,22);fill-rule:nonzero;"/>
            </g>
        </g>
        <g transform="matrix(1,0,0,1,-79.5,-1.07256)">
            <g>
                <path d="M297.7,894.6C306.3,896.7 312.1,903.3 317.3,910C322.3,916.3 325.7,919.7 334.1,919.2C351.5,918.1 368.1,911.5 384.6,906.5C401.6,901.4 423.1,895.8 439.9,904.4C457.3,913.3 463.8,934.7 455.1,952C454.2,953.7 456.8,955.2 457.7,953.5C470.2,928.5 453.6,900.4 426.4,897.5C395.2,894.2 367,912.7 336.6,915.9C330.9,916.5 326.1,916.2 322.1,911.4C319.7,908.5 317.5,905.4 315,902.6C310.4,897.5 305.1,893.3 298.3,891.6C296.6,891.2 295.8,894.1 297.7,894.6Z" style="fill:rgb(22,22,22);fill-rule:nonzero;"/>
            </g>
        </g>
        <g transform="matrix(1,0,0,1,-79.5,-1.07256)">
            <g>
                <path d="M425.4,923.2C417.6,929.4 411.9,937.5 412.5,947.9C413.1,957.1 418.6,965 426.8,969.2C428.5,970.1 430,967.5 428.3,966.6C420.6,962.6 415.4,955.1 415.5,946.2C415.6,937.2 420.8,930.6 427.5,925.3C429,924.2 426.9,922 425.4,923.2Z" style="fill:rgb(22,22,22);fill-rule:nonzero;"/>
            </g>
        </g>
        <g transform="matrix(1,0,0,1,-79.5,-1.07256)">
            <g>
                <path d="M427,968.4C421.4,970.1 415.9,972.1 410.5,974.5C407.5,975.9 400.1,977.9 399.1,981.6C397,989.4 416.4,986.3 419.3,986.1C425.1,985.7 430.9,985.1 436.7,984.2C441.8,983.4 448.7,983.3 453.3,980.8C456.8,979 456.5,975.1 456.7,971.6C457.2,964.7 457.8,957.9 458.3,951C458.5,949.1 455.5,949.1 455.3,951C455,955.4 454.6,959.7 454.3,964.1C454,968.1 454.9,976.1 451,978.4C448.3,980 443.6,980 440.5,980.5C435.6,981.3 430.8,982 425.8,982.5C421.7,982.9 417.6,983.2 413.5,983.3C411.3,983.4 409.1,983.6 406.9,983.5C405,983.4 401.8,984.1 403.1,981.4C403.7,980.3 407.5,979 408.7,978.5C411,977.4 413.4,976.3 415.8,975.3C419.7,973.7 423.7,972.4 427.7,971.2C429.7,970.7 428.9,967.8 427,968.4Z" style="fill:rgb(22,22,22);fill-rule:nonzero;"/>
            </g>
        </g>
        <g transform="matrix(1,0,0,1,-79.5,-1.07256)">
            <g>
                <path d="M317.1,947.9C317.8,964.6 304.1,975.8 290.7,983C285,986 263.5,992.8 271.1,1003C277.8,1012 294.3,1002.7 301.6,998.8C314.2,992.1 325.2,983 336.2,973.9C337.7,972.7 335.6,970.6 334.1,971.8C324.6,979.6 315.1,987.5 304.5,993.7C299.1,996.9 293.4,999.7 287.4,1001.7C284,1002.8 279.5,1004.6 276.1,1002.9C269.1,999.5 274.9,994.4 278.9,992.2C296.9,982.7 321.2,972.1 320.1,947.8C320,946 317,946 317.1,947.9Z" style="fill:rgb(22,22,22);fill-rule:nonzero;"/>
            </g>
        </g>
        <g transform="matrix(1,0,0,1,-79.5,-1.07256)">
            <g>
                <path d="M258.7,941.8C259.2,938.4 261,935.3 264.1,933.7C265.8,932.8 264.3,930.2 262.6,931.1C258.8,933.1 256.4,936.9 255.8,941C255.5,942.9 258.4,943.7 258.7,941.8Z" style="fill:rgb(22,22,22);fill-rule:nonzero;"/>
            </g>
        </g>
        <g transform="matrix(1,0,0,1,-79.5,-1.07256)">
            <g>
                <path d="M271.2,970.4C269.6,973.4 266.6,975.1 264,977.2C261.3,979.4 258.7,981.8 256.2,984.3C253.2,987.4 246.5,992.8 246.2,997.5C245.5,1009.1 267.1,999.1 271.2,997.8C273,997.2 272.2,994.3 270.4,994.9C265.9,996.4 261.5,998 256.9,999.3C255.6,999.8 254.2,1000.1 252.9,1000.2C250.4,997.3 250.3,994.8 252.4,992.9C253.4,991.2 255.2,989.7 256.5,988.3C259.5,985.1 262.7,982.1 266.1,979.3C268.9,977 272,975.2 273.7,971.9C274.7,970.2 272.1,968.7 271.2,970.4Z" style="fill:rgb(22,22,22);fill-rule:nonzero;"/>
            </g>
        </g>
        <g transform="matrix(1,0,0,1,-79.5,-1.07256)">
            <g>
                <path d="M335.9,975C364,975.1 391.6,966.4 414.5,950.1C416.1,949 414.6,946.4 413,947.5C390.5,963.5 363.6,972.1 335.9,972C334,971.9 334,974.9 335.9,975Z" style="fill:rgb(22,22,22);fill-rule:nonzero;"/>
            </g>
        </g>
        <g transform="matrix(1,0,0,1,-79.5,-1.07256)">
            <g>
                <path d="M399,957.2C399.6,958.9 400.1,960.5 400.7,962.2C401.6,964.7 402.4,965.5 399.9,967C396.8,968.9 393.1,970.3 389.8,971.9C386.4,973.5 383,975 379.7,976.8C378.1,977.6 376.6,978.5 375.9,980.2C372.3,989.8 395.9,984.4 399.4,983.3C401.2,982.7 400.4,979.8 398.6,980.4C395.9,981.3 393.1,982 390.3,982.3C388.5,982.5 383.5,983.6 381.7,982.6C376.9,979.9 384.6,977.7 386.2,976.9C388.7,975.7 391.2,974.4 393.8,973.2C396.6,971.8 403.4,970.2 404.7,967.1C405.9,964.3 402.7,958.9 401.8,956.3C401.3,954.6 398.4,955.4 399,957.2Z" style="fill:rgb(22,22,22);fill-rule:nonzero;"/>
            </g>
        </g>
        <g transform="matrix(1,0,0,1,-79.5,-1.07256)">
            <g>
                <path d="M458.5,918.7C458.4,914.8 459.1,911.1 461.2,907.7C462.1,906.3 463.4,904.4 465,903.7C473.4,900.2 471.9,908.1 471.2,910.9C469.4,917.3 464.4,922.5 458.9,925.9C457.2,926.9 458.8,929.5 460.4,928.5C465.8,925.3 470.2,920.7 472.9,914.9C474.6,911.1 476.3,905.5 473,902.1C470,899 465.2,899.8 462.1,902.2C457.2,906 455.4,912.8 455.6,918.8C455.6,920.6 458.6,920.7 458.5,918.7Z" style="fill:rgb(22,22,22);fill-rule:nonzero;"/>
            </g>
        </g>
        <g transform="matrix(1,0,0,1,-79.5,-1.07256)">
            <g>
                <path d="M274.8,900.2C281.4,895.8 291.9,891.3 299.6,895.3C301.3,896.2 302.8,893.6 301.1,892.7C292.3,888.1 280.9,892.6 273.3,897.6C271.7,898.6 273.2,901.2 274.8,900.2Z" style="fill:rgb(22,22,22);fill-rule:nonzero;"/>
            </g>
        </g>
        <g transform="matrix(1,0,0,1,-79.5,-1.07256)">
            <path d="M308,914.5C311,915.7 318.6,919.1 324,927.3C326.3,930.8 332,939.5 328.8,949.3C325.9,958.1 317.7,962 315.8,962.8C317.1,960 318.9,955.5 319.3,949.8C319.8,942.6 318,937.2 316,931.3C314.6,927 312.2,921.1 308,914.5Z" style="fill:rgb(109,108,108);fill-opacity:0.09;fill-rule:nonzero;"/>
        </g>
        <g transform="matrix(1,0,0,1,-79.5,-1.07256)">
            <path d="M278,945.8C275.2,956.7 270,963.8 267.2,967.6C261.4,975.5 254.9,980.8 249.9,984.1C253.7,983.6 259.2,982.2 264.9,978.8C266.5,977.8 273.7,973.5 279.2,964.5C282.2,959.6 283.7,955.1 284.5,952C282.8,942.6 281.2,933.2 279.5,923.7C280.1,928.6 280.4,936.5 278,945.8Z" style="fill:rgb(109,108,108);fill-opacity:0.13;fill-rule:nonzero;"/>
        </g>
        <g transform="matrix(1,0,0,1,-79.5,-1.07256)">
            <path d="M451,911.8C451.9,916.5 452.9,923.8 451.5,932.6C449.1,948.2 440.9,958.4 437.2,962.9C425.5,977.2 411,982.9 404.2,985.2C420,984.7 432.8,983.3 442.2,981.9C448.6,981 452.7,980.2 455.2,976.9C459.4,971.3 454.4,965.3 456.7,951.9C458.2,942.8 460.9,942.2 461.2,935.6C461.5,929.6 459.7,921.6 451,911.8Z" style="fill:rgb(109,108,108);fill-opacity:0.07;fill-rule:nonzero;"/>
        </g>
        <g transform="matrix(1,0,0,1,-79.5,-1.07256)">
            <path d="M401.3,957.5C402,958.6 404.3,962.3 403.1,965.8C402.8,966.6 402,968.4 397.3,970.8C389.3,975 384.8,973.3 381,977.6C380.7,977.9 378.1,980.9 379,982.9C379.9,984.8 383.9,984.6 387.3,984.4C390.6,984.2 395.3,983.5 400.8,981.4C404,979.3 407.9,977 412.6,974.9C417.8,972.6 422.6,971.1 426.6,970.1C426.2,968.8 425.3,966.9 423.8,964.8C421.1,961.2 418.6,960.7 416.3,957.5C415.3,956.1 414,953.8 413.5,950.2C409.4,952.7 405.3,955.1 401.3,957.5Z" style="fill:rgb(109,108,108);fill-opacity:0.14;fill-rule:nonzero;"/>
        </g>
        <g transform="matrix(1,0,0,1,-79.5,-1.07256)">
            <path d="M470.5,902.5C470.3,905.1 469.7,909 468,913.3C465,921 460.5,925.1 461.2,925.8C461.8,926.4 466.2,923.7 469,919.8C471.3,916.5 471.9,913.3 472,912.3C472.7,907.6 471.2,903.9 470.5,902.5Z" style="fill:rgb(109,108,108);fill-opacity:0.25;fill-rule:nonzero;"/>
        </g>
    </g>
    <g id="guy" transform="matrix(1,0,0,1,-50,-100)">
        <g id="leg_back" transform="matrix(1,0,0,1,-79.5,-1.07256)">
            <path d="M1096.6,891.2C1119.2,912.4 1141.7,933.7 1164.3,954.9C1137.9,1008.6 1127.3,1037 1132.5,1040.2C1138.9,1044.2 1169.9,1008.9 1225.6,934.1C1187.2,906.1 1148.8,878.1 1110.4,850C1105.8,863.8 1101.2,877.5 1096.6,891.2Z" style="fill:rgb(51,51,51);fill-rule:nonzero;stroke:black;stroke-width:3px;"/>
            <path d="M999.8,581.6C991.4,594.4 996.2,606.1 1001,650.3C1005.9,695.1 1001.8,690.4 1005.8,721.4C1012.6,773.8 1027.6,811.7 1039.6,841.4C1039.6,841.4 1056.5,883.5 1089.6,922.2C1090.5,923.3 1092.6,925.5 1095.6,927.6C1098.6,929.7 1105,934.1 1112.5,933C1120.4,931.9 1126.4,925.2 1128.8,919.1C1131.5,912.2 1128.3,909 1131.8,903.4C1134.4,899.4 1136.7,900 1143.3,895C1147.9,891.4 1153.8,886.9 1156.6,879.3C1159.7,870.7 1157.3,862.9 1156.6,860.6C1154.5,854 1150.5,849.8 1149.4,848.5C1144.5,843.2 1136.9,828.3 1121.7,798.5C1109.9,775.5 1091.4,723.4 1085.5,658.1C1080.3,600.1 1089.3,579.6 1072.8,567.1C1053.3,552.3 1013.7,560.4 999.8,581.6Z" style="fill:white;fill-rule:nonzero;"/>
            <g>
                <g>
                    <path d="M1081.1,602.8C1080.2,637.6 1084.5,672.3 1092,706.3C1099.3,739.3 1108.7,772.6 1121.7,803.8C1128.3,819.8 1136.5,835.1 1147.2,848.7C1148.4,850.2 1150.5,848.1 1149.3,846.6C1129.3,821.4 1118.9,790.3 1109.5,760C1099.3,727.3 1091.2,693.9 1087,659.8C1084.7,640.9 1083.7,621.8 1084.2,602.8C1084.2,600.8 1081.2,600.8 1081.1,602.8Z" style="fill:rgb(22,22,22);fill-rule:nonzero;"/>
                </g>
            </g>
            <g>
                <g>
                    <path d="M1000.2,647C1000.4,700.5 1007.5,754.3 1024.2,805.3C1032.4,830.3 1042.9,854.7 1056,877.5C1062.6,889.1 1069.9,900.4 1077.9,911.2C1084.6,920.3 1092.5,930.4 1104.1,933.3C1114.8,936 1125.5,931.7 1129.7,921.2C1134,910.3 1131.1,896.1 1140.1,887.3C1141.5,885.9 1139.4,883.8 1138,885.2C1131.1,891.9 1130.7,901.6 1129.3,910.5C1128.6,914.9 1127.8,919.5 1125.4,923.3C1121.4,929.9 1113.7,932.1 1106.4,930.7C1093.3,928.2 1084.8,915.7 1077.6,905.6C1070.5,895.6 1063.9,885.2 1057.8,874.5C1033.1,830.7 1017.8,782 1009.9,732.4C1005.4,704.2 1003.3,675.6 1003.2,647C1003.2,645 1000.2,645 1000.2,647Z" style="fill:rgb(22,22,22);fill-rule:nonzero;"/>
                </g>
            </g>
            <g>
                <g>
                    <path d="M1144.8,845.9C1152.9,855.5 1159.2,868 1154.9,880.7C1152.7,887.4 1147.7,889.9 1142.2,893.4C1137.4,896.5 1133.4,900.6 1130.1,905.3C1129,906.9 1131.6,908.4 1132.7,906.8C1135.5,903 1138.7,899.4 1142.6,896.7C1145.1,895 1147.9,893.7 1150.4,891.9C1155.1,888.5 1157.7,883.2 1158.7,877.6C1160.9,864.8 1154.9,853.3 1146.9,843.7C1145.7,842.3 1143.6,844.5 1144.8,845.9Z" style="fill:rgb(22,22,22);fill-rule:nonzero;"/>
                </g>
            </g>
            <path d="M1002.1,644.7C1001.9,657.9 1002.3,671.7 1003.3,686.2C1006.9,737.3 1017.8,781.6 1030.3,817.8C1030.3,817.8 1046,862.7 1066.9,894.1C1069.2,897.5 1073.6,903.2 1082.5,914.5C1091.7,926.3 1094.4,929.2 1099.3,931.3C1100,931.6 1112.5,936.8 1120.9,930.7C1123.2,929.1 1125,925.2 1128.7,917.5C1132.5,909.6 1134.4,905.4 1135.3,899.5C1140.2,899.3 1143.8,896.6 1144.3,893.5C1144.9,889.7 1140.5,886.5 1140.1,886.3C1134.1,882.2 1125.8,885.6 1122.1,886.3C1103.8,889.6 1080.9,846 1074,832.8C1045.5,777.5 1031.2,749.9 1021.1,719.3C1015.2,700.4 1007.9,675.2 1002.1,644.7Z" style="fill:rgb(109,108,108);fill-opacity:0.16;fill-rule:nonzero;"/>
            <path d="M1015.3,761.3C1016.2,761 1017.8,765.5 1033.3,796.7C1063.5,857.4 1070.7,866.2 1078.4,873C1087.6,881.2 1104.1,892.4 1132.5,897C1132.8,898.8 1136.4,918.6 1124.7,927.6C1119.6,931.6 1113.7,931.8 1112.1,931.8C1094,932.4 1075.2,907.7 1058.6,878.3C1026.3,821.1 1012,762.4 1015.3,761.3Z" style="fill:rgb(109,108,108);fill-opacity:0.13;fill-rule:nonzero;"/>
        </g>
        <g id="leg_front" transform="matrix(1,0,0,1,-79.5,-1.07256)">
            <path d="M876.5,897.4C863.1,925.4 849.8,953.3 836.4,981.3C777.3,972.5 746.9,971.1 745.4,977C743.5,984.3 786.7,1003.1 874.8,1033.3C889.8,988.2 904.8,943.1 919.7,897.9C905.4,897.8 891,897.6 876.5,897.4Z" style="fill:rgb(50,50,50);fill-rule:nonzero;stroke:black;stroke-width:3px;"/>
            <path d="M995.4,572.4C985.1,581.2 982.1,590.6 973.8,609.8C961,639.3 946.5,668.1 933.5,697.6C907.6,756.4 899.2,769.4 879.6,815.6C868.3,842.2 868.4,844.1 862.3,855.2C856,866.6 849.5,876.2 845,892.6C842.3,902.4 841.7,909.7 844.3,917.1C845.3,920 848.4,929.1 856.5,932.2C861.7,934.2 867,933 873,931.5C877.9,930.3 881.8,928.6 884.5,927.2C886.3,929.5 889.5,932.9 894.6,935.1C904.1,939.4 913.2,936.5 917.6,935.1C920.2,934.3 929.9,930.9 937,921.4C941.9,914.9 943.3,908.4 944.2,904.9C947.8,890 955.2,876.3 960,861.7C962.6,853.7 967.6,841.5 1001,792.7C1037,740.1 1038.8,743.2 1056.4,714.3C1075.5,682.9 1086.2,665.7 1090.9,639.5C1094.7,618.3 1100.3,587.2 1081.7,568.8C1060.6,547.4 1017.9,553 995.4,572.4Z" style="fill:white;fill-rule:nonzero;"/>
            <g>
                <g>
                    <path d="M1091.4,591.8C1097.7,649.4 1066.5,701.7 1033.8,746.3C1017.2,768.9 999.7,790.8 984.6,814.3C969,838.5 956.9,864.5 947,891.5C942,905.2 938.8,922.8 925.3,931C914,937.8 899.2,937.3 888.7,929.3C887.2,928.1 885.7,930.7 887.2,931.9C905.1,945.4 930.6,937.9 940.2,918.3C946.5,905.4 950.2,891 955.5,877.7C961.5,862.8 968.3,848.1 976.1,834.1C1005.5,781.8 1049.7,739.1 1075.7,684.7C1089.5,655.7 1098,623.9 1094.4,591.7C1094.2,589.9 1091.2,589.8 1091.4,591.8Z" style="fill:rgb(22,22,22);fill-rule:nonzero;"/>
                </g>
            </g>
            <g>
                <g>
                    <path d="M993.8,563.4C966.4,623.3 939,683.3 911.5,743.2C897.7,773.5 883.8,803.7 870,834C863.5,848.3 856.7,862.5 850.4,876.9C845.4,888.2 840.6,900.9 842.5,913.4C844.1,923.5 850.4,934.2 861.5,935C869.5,935.6 877.6,931.8 885,929.4C893.7,926.6 902.5,923.7 911.2,920.9C913,920.3 912.2,917.4 910.4,918C903.5,920.2 896.7,922.4 889.8,924.7C882.6,927 875.4,929.9 868,931.5C853.5,934.5 845.5,922.1 845,909.1C844.5,894.7 851.7,880.8 857.5,868.1C863.9,854.2 870.2,840.3 876.6,826.3C902.1,770.6 927.6,714.9 953,659.2C967.4,627.7 981.8,596.2 996.2,564.8C997.2,563.1 994.6,561.6 993.8,563.4Z" style="fill:rgb(22,22,22);fill-rule:nonzero;"/>
                </g>
            </g>
            <g>
                <g>
                    <path d="M884.6,930C885.6,930.6 886.6,931.3 887.5,932C888.1,932.5 889,932.6 889.6,932C890.1,931.5 890.2,930.4 889.6,929.9C888.5,929 887.3,928.2 886.1,927.4C884.5,926.4 883,929 884.6,930Z" style="fill:rgb(22,22,22);fill-rule:nonzero;"/>
                </g>
            </g>
            <path d="M1047.2,554.6C1035.1,560.6 1038.8,585 1037,611.7C1035.7,631.4 1032.4,637.4 986.5,742.1C947.9,830.2 943.3,841.8 928.2,864.7C909.5,893 890.7,914.3 877.1,928.4C880.3,928.2 883.5,928 886.7,927.8C888.8,929.8 892.2,932.4 896.9,934.4C899.2,935.4 909.5,939.8 920.3,936.2C930.9,932.7 936.1,923.5 940.1,916.4C946.1,905.7 947.7,896.2 948.5,891.8C950.7,880.1 957.6,866.8 971.3,840.1C989.8,804.2 1007.8,789.5 1041,740.4C1068.2,700 1083.2,677.3 1090.3,643.1C1096,615.8 1094.3,592.3 1092.1,577C1077.4,563.1 1058.6,548.9 1047.2,554.6Z" style="fill:rgb(109,108,108);fill-opacity:0.09;fill-rule:nonzero;"/>
            <path d="M1090.4,624.9C1088.7,624.2 1080.3,644.4 1063.4,674.2C1040.1,715 1032,718.8 1000.9,765.5C969.5,812.7 970,820.6 937.2,868.8C920.2,893.8 905.2,913.6 895.1,926.5C892.2,931.2 892.7,933.4 893.3,934.3C895.8,938.6 908.4,935.7 914.3,934.3C921.9,932.5 925.8,931.6 929.9,928.9C938.6,923.2 940.5,914.3 946.7,895.9C950,886 954.2,876.4 957.5,866.5C964.7,845.3 974.9,830.4 991.7,806.4C1049.3,724.5 1049.1,729.1 1059,710.9C1082.7,667.7 1092.8,625.9 1090.4,624.9Z" style="fill:rgb(109,108,108);fill-opacity:0.16;fill-rule:nonzero;"/>
        </g>
        <g id="hand_back" transform="matrix(1,0,0,1,-79.5,-1.07256)">
            <path d="M806.2,273.9C803.6,278.3 803.1,282.5 802.9,284.4C801.9,292.6 804.7,299 805.9,301.5C812.5,315.8 827.6,320.7 830.3,321.5C832.1,328.2 833.9,334.9 835.9,341.7C840.4,357.6 845.1,373.2 849.9,388.4C856.3,387.5 862.7,386.6 869.1,385.7C867.3,377.2 865.1,370.4 863.5,365.9C858.7,352.1 854.2,345.2 850.3,330.2C849.3,326.2 848.6,322.8 848.2,320.7C849.8,319.6 852,317.7 854.1,315C862.4,304.2 860.4,291 860,288.2C859.3,283.9 858.2,276.1 851.6,269.5C843.2,261 832.4,260.8 830.8,260.8C821.1,260.5 811.1,265.5 806.2,273.9Z" style="fill:rgb(209,1,76);fill-rule:nonzero;"/>
            <path d="M812,282C811.6,283.2 810.5,287.5 811.7,292.8C813.5,300.6 819.7,307.7 828,310.1C834.5,312 844.4,311.8 849.7,305.3C853.4,300.8 853.3,295.4 853.2,290.4C853.1,284.8 852.9,276.2 846.1,270.6C837.9,263.8 827,267.2 826.3,267.4C819.2,269.7 813.9,275.4 812,282Z" style="fill:white;fill-rule:nonzero;"/>
            <path d="M830.1,345.1C829.8,346.6 829.4,348.8 829.4,351.3C829.4,352.5 829.4,355.8 830.6,360.8C831.4,363.9 831.9,364.7 835.2,372.7C838.8,381.4 839.5,383.8 842.2,384.9C844,385.7 845.9,385.4 847.1,385.1C844.2,380.5 844.4,377.8 845.1,376.2C845.7,374.7 846.7,374.4 847.3,372.5C847.5,371.8 847.8,370.5 846.7,366C845.6,361.6 845.1,361.6 844.8,359C844.4,356 845.1,355.9 844.7,353.1C844.6,352.6 844.2,349.9 842.5,346.8C840.9,344 839.9,342.2 837.9,341.6C835.3,341 832.4,342.5 830.1,345.1Z" style="fill:white;fill-rule:nonzero;"/>
            <path d="M855,343.9C852.5,346.4 849,351.1 850.4,353.6C851.6,355.6 855.8,355.8 857.9,355.9C859.4,356 860.6,355.9 861.5,355.8C861.9,356.9 862.3,357.9 862.6,359C865.4,367.2 867.8,375.3 869.8,383.3C870.1,384.4 870.4,385.5 870.6,386.5C869.7,387.8 868,389.8 865.3,391.4C861.6,393.5 858.1,393.8 856.4,393.8C858.3,398.4 861.1,404.2 865.3,410.5C866.5,412.3 870,417.6 875.8,423.9C881.3,429.9 886.8,435.9 895.6,441.1C907.5,448.2 918.7,449.8 924.9,450.6C934.2,451.8 941.5,451.3 945.2,450.9C948.4,450.6 961.1,449 975.8,441.5C989.5,434.5 997.8,426.1 1004.1,419.6C1009,414.6 1017.4,405.7 1024.7,391.6C1029.7,381.8 1031.6,374.5 1035.2,360.2C1040.3,340 1042.8,329.9 1037.8,325.3C1033.6,321.5 1026.2,323.1 1020.2,324.5C1010.3,326.7 1003.6,332 995.5,338.6C991.4,342 987.8,345.5 980.9,352.3C966.3,366.7 965.4,369 957.4,375.6C952.6,379.6 948.7,382.2 940.9,387.3C925.3,397.7 920.9,398.6 917.5,398.8C911.3,399.1 906.6,397 902.3,395.1C889.5,389.3 883.4,379.1 881.5,375.9C879,371.6 877.1,368.3 877,363.7C876.9,358.4 879.2,356.7 879.3,350.2C879.4,346.4 879.5,341.1 876.3,338.4C871.3,334 860.7,338.3 855,343.9Z" style="fill:white;fill-rule:nonzero;"/>
            <g>
                <g>
                    <path d="M875.3,369.2C884.7,385.4 899.2,402.4 920,399.9C921.9,399.7 921.9,396.7 920,396.9C900.2,399.3 886.8,383 877.8,367.7C876.9,366 874.3,367.5 875.3,369.2Z" style="fill:rgb(22,22,22);fill-rule:nonzero;"/>
                </g>
            </g>
            <g>
                <g>
                    <path d="M898.1,403.5C911.3,404.7 923.5,399 934.6,392.6C946.1,386 956.7,378 966.3,368.8C985.5,350.3 1005.5,320.5 1036.2,326C1038.1,326.3 1038.9,323.4 1037,323.1C1009.7,318.2 989.5,340.1 972.6,358C962.7,368.5 952,378.1 939.8,385.9C927.4,393.9 913.3,401.8 898.1,400.5C896.2,400.3 896.2,403.3 898.1,403.5Z" style="fill:rgb(22,22,22);fill-rule:nonzero;"/>
                </g>
            </g>
            <g>
                <g>
                    <path d="M851.3,388.6C866,416.5 884.1,444 917,451C947.3,457.5 978.1,446.5 1000.3,425.7C1013.3,413.5 1023.3,398.5 1030.5,382.3C1031.3,380.6 1028.7,379 1027.9,380.8C1015.8,407.8 995.3,432.4 967.3,443.6C939.1,454.8 905.6,451.2 883.2,429.9C870.6,417.9 862,402.4 853.9,387.1C853,385.3 850.4,386.9 851.3,388.6Z" style="fill:rgb(22,22,22);fill-rule:nonzero;"/>
                </g>
            </g>
            <g>
                <g>
                    <path d="M859.4,339.7C854.3,341.9 847.1,348.6 849.9,354.9C853,361.7 864,355.8 867.9,352.9C869.4,351.8 867.9,349.2 866.4,350.3C864.1,352 853.4,358.4 852.4,352.5C851.6,348.1 857.6,343.8 861,342.3C862.7,341.5 861.1,338.9 859.4,339.7Z" style="fill:rgb(22,22,22);fill-rule:nonzero;"/>
                </g>
            </g>
            <g>
                <g>
                    <path d="M860,342.5C863.8,339.6 869.8,335 874.6,339.2C878.5,342.7 877.7,348.8 877,353.3C876.1,359.1 873.8,367.2 877.5,372.4C878.6,374 881.2,372.5 880.1,370.9C876.5,365.8 879.8,356.6 880.4,351C880.9,346.8 880.7,342.5 878.3,339C873.1,331.4 864.3,335.5 858.5,339.9C857,341.1 858.5,343.7 860,342.5Z" style="fill:rgb(22,22,22);fill-rule:nonzero;"/>
                </g>
            </g>
            <g>
                <g>
                    <path d="M858.3,355.8C861.7,365.9 864.8,376.1 867.8,386.4C868.1,385.8 868.5,385.2 868.8,384.6C862,386.2 855,384.5 848.6,387.8C849.3,388.1 850.1,388.4 850.8,388.7C849.6,384.4 848.1,380.1 846.6,375.9C845.9,374.1 843,374.9 843.7,376.7C845.3,380.9 846.7,385.2 847.9,389.5C848.2,390.5 849.2,390.8 850.1,390.4C856.1,387.3 863.2,389 869.6,387.5C870.4,387.3 870.9,386.4 870.6,385.7C867.6,375.4 864.5,365.3 861.1,355.1C860.6,353.1 857.7,353.9 858.3,355.8Z" style="fill:rgb(22,22,22);fill-rule:nonzero;"/>
                </g>
            </g>
            <g>
                <g>
                    <path d="M849,389.7C853.4,396.9 867.1,394.2 870.2,387C871,385.2 868.4,383.7 867.6,385.5C865.5,390.5 854.8,393.5 851.5,388.2C850.6,386.5 848,388 849,389.7Z" style="fill:rgb(22,22,22);fill-rule:nonzero;"/>
                </g>
            </g>
            <g>
                <g>
                    <path d="M851.7,390.6C856.8,391.7 861.8,391.4 866.7,389.6C868.5,388.9 867.7,386 865.9,386.7C861.5,388.3 857,388.6 852.5,387.7C850.6,387.3 849.8,390.2 851.7,390.6Z" style="fill:rgb(22,22,22);fill-rule:nonzero;"/>
                </g>
            </g>
            <g>
                <g>
                    <path d="M850.8,390.1C854.4,384.6 861.2,383.1 866.8,386.4C868.5,387.4 870,384.8 868.3,383.8C861.1,379.7 852.7,381.7 848.1,388.6C847.1,390.2 849.7,391.8 850.8,390.1Z" style="fill:rgb(22,22,22);fill-rule:nonzero;"/>
                </g>
            </g>
            <g>
                <g>
                    <path d="M856.3,388.3C857.5,384.5 862.6,386.6 865,387.7C866.7,388.5 868.3,385.9 866.5,385.1C862.2,383.1 855.3,381.4 853.4,387.5C852.9,389.4 855.8,390.2 856.3,388.3Z" style="fill:rgb(22,22,22);fill-rule:nonzero;"/>
                </g>
            </g>
            <g>
                <g>
                    <path d="M843.8,383.6C841.2,381.9 839.5,379 839.6,375.8C839.7,374.4 840.1,373.1 840.7,371.9C841,371.4 843.8,367.8 844.5,368.3C846,369.5 848.1,367.4 846.6,366.2C842.8,363.2 838.2,369.3 837.2,372.6C835.5,377.9 837.8,383.2 842.3,386.2C843.9,387.2 845.4,384.6 843.8,383.6Z" style="fill:rgb(22,22,22);fill-rule:nonzero;"/>
                </g>
            </g>
            <g>
                <g>
                    <path d="M844.7,377.8C849.1,375.3 849.8,369.4 845.9,366.1C844.4,364.9 842.3,367 843.8,368.2C846.2,370.2 846,373.6 843.2,375.2C841.5,376.2 843,378.8 844.7,377.8Z" style="fill:rgb(22,22,22);fill-rule:nonzero;"/>
                </g>
            </g>
            <g>
                <g>
                    <path d="M840.4,384.5C842.6,386.7 846.1,387.2 848.7,385.5C850.3,384.5 848.8,381.9 847.2,382.9C845.7,383.9 843.8,383.7 842.5,382.4C841.2,381 839.1,383.1 840.4,384.5Z" style="fill:rgb(22,22,22);fill-rule:nonzero;"/>
                </g>
            </g>
            <g>
                <g>
                    <path d="M838,374.5C836.2,371.8 835.6,368.7 836.3,365.5C837.1,361.7 840.5,357.1 844.5,361C845.9,362.4 848,360.2 846.6,358.9C842.7,355 837.9,356.1 835.1,360.7C832.2,365.4 832.5,371.5 835.5,376C836.5,377.6 839.1,376.1 838,374.5Z" style="fill:rgb(22,22,22);fill-rule:nonzero;"/>
                </g>
            </g>
            <g>
                <g>
                    <path d="M834.5,367.6C834.3,366.2 833.8,365.1 833.1,363.8C831.8,361.4 831.5,359.6 832.2,356.9C833.4,352.3 837.3,348.9 842,351.7C843.7,352.7 845.2,350.1 843.5,349.1C839.2,346.6 833.7,347.6 831,351.9C829.6,354.1 828.7,357 828.7,359.6C828.6,362.9 831.1,365.2 831.6,368.4C831.9,370.3 834.8,369.5 834.5,367.6Z" style="fill:rgb(22,22,22);fill-rule:nonzero;"/>
                </g>
            </g>
            <g>
                <g>
                    <path d="M831.6,353C830,350.7 829.9,347.5 831.9,345.4C833.9,343.3 837.1,343.2 839.5,344.7C841.1,345.7 842.6,343.1 841,342.1C837.5,339.9 832.7,340.3 829.8,343.3C826.9,346.3 826.7,351.2 829,354.6C830.1,356.1 832.7,354.6 831.6,353Z" style="fill:rgb(22,22,22);fill-rule:nonzero;"/>
                </g>
            </g>
            <g>
                <g>
                    <path d="M840.9,351.3C843.1,352.4 843.9,355.5 842.2,357.4C840.9,358.8 843,361 844.3,359.5C847.2,356.3 846.4,350.7 842.4,348.7C840.7,347.9 839.1,350.4 840.9,351.3Z" style="fill:rgb(22,22,22);fill-rule:nonzero;"/>
                </g>
            </g>
            <g>
                <g>
                    <path d="M838.3,344.8C840.2,345.7 841.3,347.7 840.9,349.9C840.5,351.8 843.4,352.6 843.8,350.7C844.5,347.3 842.9,343.8 839.8,342.3C838.1,341.3 836.6,343.9 838.3,344.8Z" style="fill:rgb(22,22,22);fill-rule:nonzero;"/>
                </g>
            </g>
            <g>
                <g>
                    <path d="M844.3,362.3C845,363.4 845.2,364.8 844.6,366.1C844.3,366.8 844.4,367.7 845.1,368.2C845.7,368.6 846.8,368.4 847.2,367.7C848.2,365.5 848.1,363 846.9,360.9C845.9,359.1 843.3,360.6 844.3,362.3Z" style="fill:rgb(22,22,22);fill-rule:nonzero;"/>
                </g>
            </g>
            <g>
                <g>
                    <path d="M829.5,322.7C830.7,329.5 832.2,336.2 834.1,342.9C834.6,344.8 837.5,344 837,342.1C835.1,335.5 833.6,328.7 832.4,321.9C832.1,320 829.2,320.8 829.5,322.7Z" style="fill:rgb(22,22,22);fill-rule:nonzero;"/>
                </g>
            </g>
            <g>
                <g>
                    <path d="M846.3,321.1C848.7,329.1 851.1,337 853.4,345C854,346.8 856.8,346.1 856.3,344.2C853.9,336.2 851.5,328.3 849.2,320.3C848.6,318.4 845.7,319.2 846.3,321.1Z" style="fill:rgb(22,22,22);fill-rule:nonzero;"/>
                </g>
            </g>
            <g>
                <g>
                    <path d="M829.8,319.8C817.1,318.6 805.5,302.4 803.7,290.6C801.5,276.3 814.8,264.5 828,262C856.3,256.8 871.3,306.4 847.1,319.4C845.4,320.3 846.9,322.9 848.6,322C869.6,310.7 863.9,274.9 846.3,263.2C825.1,249.1 793.3,271.8 802.1,296.4C806.2,307.8 816.9,321.5 829.8,322.7C831.7,323 831.7,320 829.8,319.8Z" style="fill:rgb(22,22,22);fill-rule:nonzero;"/>
                </g>
            </g>
            <g>
                <g>
                    <path d="M829.7,309.3C820,307.1 812.4,298.6 812.5,288.4C812.6,277.6 821.5,268 832.4,267.6C845.5,267.2 851.9,279.9 851.7,291.5C851.6,298.2 850.6,304.6 843.7,307.3C838.4,309.3 832.6,311.1 827,308.9C825.2,308.2 824.4,311.1 826.2,311.8C832.6,314.3 840,312.2 846.1,309.5C851.9,306.9 853.6,302.3 854.4,296.2C856,282.9 850.8,266.6 835.5,264.8C822.9,263.3 811.7,273.1 809.9,285.4C808.1,297.9 817,309.4 829.1,312.2C830.8,312.6 831.6,309.7 829.7,309.3Z" style="fill:rgb(22,22,22);fill-rule:nonzero;"/>
                </g>
            </g>
            <g>
                <g>
                    <path d="M832.9,266.5C828.8,279.4 824.7,292.4 820.7,305.3C820.1,307.1 823,307.9 823.6,306.1C827.7,293.2 831.8,280.2 835.8,267.3C836.4,265.5 833.5,264.7 832.9,266.5Z" style="fill:rgb(22,22,22);fill-rule:nonzero;"/>
                </g>
            </g>
            <g>
                <g>
                    <path d="M838.8,280.9C835.7,290.2 832.3,299.4 828.8,308.5C828.1,310.3 831,311.1 831.7,309.3C835.2,300.2 838.6,290.9 841.7,281.7C842.3,279.8 839.4,279 838.8,280.9Z" style="fill:rgb(22,22,22);fill-rule:nonzero;"/>
                </g>
            </g>
            <path d="M1036.8,325.7C1032.4,336.8 1024.7,353.3 1011.5,370.9C997.3,390 981.2,411.6 952.2,421C945,423.3 923.5,430 897.7,422C875.2,415 861.7,400.6 856.4,394.3C858.9,401 863.6,411.3 872.4,421.5C877,426.8 893.9,445.9 923,450.7C926.6,451.3 945.4,454.2 967.3,445.8C991.4,436.6 1004.4,419.5 1013.5,407.4C1019.9,398.9 1031.3,383.3 1035.9,359.7C1038.6,345.7 1037.9,333.7 1036.8,325.7Z" style="fill:rgb(109,108,108);fill-opacity:0.12;fill-rule:nonzero;"/>
            <path d="M877.3,423C884.8,427.8 898.4,435.1 916.7,437.1C939.4,439.6 956.6,432.5 969.2,427.4C994.2,417.1 1011.7,401.6 1022.7,389.5C1018.9,398.5 1010.9,413.9 995,427.4C987.5,433.8 961.6,455.8 926.4,450.7C899.6,446.8 882.8,429.3 877.3,423Z" style="fill:rgb(109,108,108);fill-opacity:0.21;fill-rule:nonzero;"/>
        </g>
        <g id="torso" transform="matrix(1,0,0,1,-79.5,-1.07256)">
            <path d="M1019.1,315.9C1002.5,328.2 996.4,344.6 989.5,362.8C976.7,396.6 978.8,423.5 980.2,466.1C981.1,493.2 981.9,532.5 981.1,581.5C998.3,585.8 1019.9,589.5 1044.9,590.4C1064.3,591 1081.6,589.8 1096.2,587.8C1104.4,550.1 1113,519.7 1119.4,498.6C1140.8,428 1162.5,376.3 1142.7,334.9C1141.7,332.9 1140.7,331.2 1139.6,329.7C1116.8,297.5 1052.9,290.8 1019.1,315.9Z" style="fill:rgb(255,0,92);fill-rule:nonzero;"/>
            <path d="M1091.3,302.9C1090,310.2 1087.8,321.7 1084.5,335.5C1065.8,413.5 1047,417.8 1043.7,461C1040.3,504.5 1057.9,520.2 1043.2,552.9C1035.5,570 1023.7,581.4 1015,588.4C1028.9,589.4 1043.8,590 1059.7,589.9C1072.2,589.8 1084,589.3 1095.2,588.4C1102.3,557.5 1109.1,532.8 1114.2,515.5C1116.7,507 1119.7,496.9 1125.4,478.1C1134.7,447.3 1137.1,439.7 1141,425.1C1146.7,403.4 1149.6,392.3 1150.2,381.3C1151.2,364.8 1152.3,346 1140.5,330.2C1133,320.1 1122.7,314.7 1117.2,311.7C1107,306.2 1097.6,303.9 1091.3,302.9Z" style="fill:rgb(109,108,108);fill-opacity:0.15;fill-rule:nonzero;"/>
            <path d="M1133.1,441.5C1131,440.7 1120.3,469.1 1101.5,507.6C1084,543.4 1067.4,571.6 1055.8,590.3C1068.9,589.3 1082.1,588.4 1095.2,587.4C1098.6,574.1 1103.8,554.2 1110.3,530C1126.3,470.4 1135.2,442.2 1133.1,441.5Z" style="fill:rgb(109,108,108);fill-opacity:0.17;fill-rule:nonzero;"/>
        </g>
        <g id="hand_front" transform="matrix(1,0,0,1,-79.5,-1.07256)">
            <path d="M1125.8,325.2C1122.5,326.4 1117.8,328.4 1112.4,331.5C1093.4,342.4 1083.3,357.4 1077.1,366.4C1077.1,366.4 1056.2,396.8 1024,437.6C1014,450.3 1004,462.1 991.7,474.9C966.2,501.5 954.9,507 950,509.1C937.8,514.5 927.1,519.2 913,518.1C903.7,517.4 897.9,514.5 891.5,518.4C884.7,522.5 880.2,532.3 881.1,537.7C881.2,538.3 881.6,540.2 881.8,542.9C881.9,543.6 882,546 881.8,549.5C881.5,554.9 880.9,554.4 881.1,556.4C881.7,560.7 884.7,562.9 883.8,564.3C883.2,565.3 881.6,564.4 880.4,565.7C879,567.1 879.6,569.8 879.7,570.2C880.4,573.3 883,575.1 884.1,575.7C888.4,578.5 891.3,577 902.2,577.4C909.9,577.7 912.2,578.6 916,576.7C917,576.2 918.7,575.3 921.7,571.9C930.3,562.3 929.3,555.9 936.8,549.8C939.5,547.6 942.2,546.4 943.9,545.7C949.4,543.3 953,543.4 958.3,542.2C961.9,541.5 965.5,540 972.7,537C984.4,532.2 993.4,527.5 996.9,525.6C1018,514.2 1037.1,499.8 1041.2,496.6C1063.1,479.9 1077.1,465.8 1095.3,447.5C1108.4,434.4 1122.2,419.6 1135.6,399.5C1139.7,393.3 1147,381.8 1149.4,365.6C1150.5,358.3 1151.6,350.1 1147.4,341.8C1141.6,329.7 1128.9,326 1125.8,325.2Z" style="fill:white;fill-rule:nonzero;"/>
            <g>
                <g>
                    <path d="M1122.8,324.3C1103.9,330.2 1089.5,347.3 1077.7,362.3C1064.3,379.4 1052.2,397.4 1039.2,414.7C1025.3,433.2 1010.9,451.3 995.2,468.3C980.3,484.3 964,500.1 943.9,509.3C932.2,514.6 919.3,517.6 906.5,516.5C899.2,515.9 889.9,514.1 885.4,521.5C884.4,523.1 887,524.7 888,523C890.7,518.5 896.3,518.6 900.9,519C905.7,519.3 910.4,519.9 915.2,519.7C924.7,519.2 934.1,516.8 942.9,513.1C961.6,505.2 977.2,491.6 991.2,477.1C1021.4,445.9 1046.2,410.3 1071.8,375.4C1079,365.6 1086.4,356 1094.9,347.3C1103.1,338.9 1112.4,330.8 1123.9,327.2C1125.4,326.6 1124.6,323.7 1122.8,324.3Z" style="fill:rgb(22,22,22);fill-rule:nonzero;"/>
                </g>
            </g>
            <g>
                <g>
                    <path d="M1122.5,326.2C1139.2,323.9 1148.5,341.6 1148.4,355.9C1148.3,370.1 1142.3,384.1 1135.3,396.2C1122.3,418.9 1103.4,438.3 1085.1,456.8C1048.9,493.1 1006.7,526 956.8,540.7C950.7,542.5 943.3,543.1 937.9,546.7C932.8,550.1 930.2,556.7 926.7,561.6C924.1,565.2 921.3,568.7 918.3,572C914.4,576.2 910.8,576.6 905.5,576.2C901.5,575.9 897.5,575.6 893.4,575.3C889.3,575 883.5,575.3 881.5,570.9C880.7,569.1 878.1,570.7 878.9,572.4C881,577.1 886,577.7 890.6,578.1C894.3,578.4 898,578.7 901.7,578.9C905.3,579.2 909.4,580 913,579.3C919,578.1 923.5,570.6 927,566.2C931.2,560.8 934.7,551.9 940.8,548.5C944.2,546.6 948.5,546.1 952.2,545.1C955.9,544.1 959.5,543.1 963.1,541.9C969.6,539.8 976.1,537.3 982.4,534.6C995.6,528.9 1008.2,522.1 1020.3,514.3C1044.5,498.7 1066.5,479.8 1086.8,459.5C1107.4,438.9 1129.1,416.8 1142.1,390.3C1148.9,376.4 1154.5,359.6 1150.1,344.2C1146.6,331.8 1135.3,321.6 1121.9,323.4C1119.8,323.6 1120.6,326.5 1122.5,326.2Z" style="fill:rgb(22,22,22);fill-rule:nonzero;"/>
                </g>
            </g>
            <g>
                <g>
                    <path d="M882.1,537C883,530.9 898.5,531.5 902.6,531.1C908.2,530.6 913.2,529.4 917.6,525.7C919.1,524.4 916.9,522.3 915.5,523.6C909.1,529 900.3,527.9 892.5,528.9C888.4,529.5 880,531 879.3,536.1C878.9,538.1 881.8,538.9 882.1,537Z" style="fill:rgb(22,22,22);fill-rule:nonzero;"/>
                </g>
            </g>
            <g>
                <g>
                    <path d="M879.1,537.4C884,547.1 894.6,552.4 905.2,550.1C907.1,549.7 906.3,546.8 904.4,547.2C895,549.3 885.9,544.4 881.6,535.9C880.8,534.2 878.2,535.7 879.1,537.4Z" style="fill:rgb(22,22,22);fill-rule:nonzero;"/>
                </g>
            </g>
            <g>
                <g>
                    <path d="M880.5,540.2C878.5,545.4 880.8,551.2 885.2,554.4C890.2,558.1 896.7,557.7 902.5,556.7C904.4,556.4 903.6,553.5 901.7,553.8C897.2,554.6 892.1,555 887.9,552.6C883.8,550.3 881.7,545.4 883.3,541C884.1,539.2 881.2,538.4 880.5,540.2Z" style="fill:rgb(22,22,22);fill-rule:nonzero;"/>
                </g>
            </g>
            <g>
                <g>
                    <path d="M880.7,548.5C877.9,553.1 879.1,559.2 883,562.9C887.6,567.3 894.6,566.8 899.9,564.2C901.6,563.4 900.1,560.8 898.4,561.6C894.3,563.5 889,564.1 885.3,560.9C882.2,558.2 881.2,553.6 883.3,550C884.3,548.3 881.7,546.8 880.7,548.5Z" style="fill:rgb(22,22,22);fill-rule:nonzero;"/>
                </g>
            </g>
            <g>
                <g>
                    <path d="M882,571.3C880,568.1 882.7,564.1 886.5,565.5C888.3,566.2 889.1,563.3 887.3,562.6C881.1,560.3 876.2,567.5 879.5,572.8C880.4,574.4 883,572.9 882,571.3Z" style="fill:rgb(22,22,22);fill-rule:nonzero;"/>
                </g>
            </g>
            <g>
                <g>
                    <path d="M885.3,523.5C890.9,521.5 896.8,524.2 899.2,529.6C900,531.4 902.6,529.8 901.8,528.1C898.9,521.6 891.3,518.2 884.5,520.7C882.7,521.3 883.5,524.2 885.3,523.5Z" style="fill:rgb(22,22,22);fill-rule:nonzero;"/>
                </g>
            </g>
            <g>
                <g>
                    <path d="M884.2,521.7C880.2,524.6 880.3,531.5 884.8,533.9C886.5,534.8 888,532.2 886.3,531.3C883.9,530 883.3,525.9 885.7,524.3C887.3,523.1 885.8,520.5 884.2,521.7Z" style="fill:rgb(22,22,22);fill-rule:nonzero;"/>
                </g>
            </g>
            <g>
                <g>
                    <path d="M885.1,530C885.3,527.8 886,526 887.3,524.2L884.7,524.2C885.7,525.9 885.7,527.5 884.7,529.1C885.6,529.2 886.5,529.3 887.4,529.5C887.2,528.9 887.1,524.3 888.3,525.1C889.2,525.7 887.2,528.8 886.8,529.5L889.4,529.5C889,528.8 888.7,528.1 888.7,527.3C889.1,525.1 889.7,524.9 890.4,526.8C890.9,527.2 891.4,527.5 891.8,527.9C891.5,526.8 891.8,526.2 892.7,526.4C893.6,526 893.8,526.3 893.3,527.2C894,527.4 894.7,527.6 895.4,527.7C895.7,528 895.9,528.3 896.2,528.6C895.9,530.5 898.8,531.3 899.1,529.4C899.5,526.9 897.2,523.5 894.6,525.8C892.4,527.8 894.6,531.5 897.4,530C900.1,528.5 899,524.4 896.2,523.7C893,523 891.4,526.8 892.8,529.2C893.2,529.9 894.2,530.1 894.9,529.7C897.4,528.2 897.2,524 894.4,522.9C890.8,521.4 888.5,525.7 889,528.7C889.1,529.4 889.8,529.8 890.4,529.8C894.6,530 895.6,523.8 891.7,522.5C886.3,520.7 884.8,527.5 886.8,531.1C887.4,532.2 888.8,532 889.4,531.1C890.8,529.1 893.7,521.9 889.1,521.5C884.8,521.2 883.6,527.4 884.5,530.4C884.9,531.6 886.6,531.9 887.2,530.8C888.7,528.3 888.7,525.4 887.2,522.8C886.6,521.8 885.2,521.9 884.6,522.8C883,525 882.3,527.4 882,530.1C881.9,532 884.9,531.9 885.1,530Z" style="fill:rgb(22,22,22);fill-rule:nonzero;"/>
                </g>
            </g>
            <g>
                <g>
                    <path d="M882.6,533.3C887.7,534.2 900.1,535.2 901.4,527.8C901.7,525.9 898.8,525.1 898.5,527C897.6,532.1 886.9,531 883.4,530.4C881.5,530.1 880.7,533 882.6,533.3Z" style="fill:rgb(22,22,22);fill-rule:nonzero;"/>
                </g>
            </g>
            <g>
                <g>
                    <path d="M894.7,531.8C898.5,547.1 898.1,562.8 893.4,577.8C892.8,579.6 895.7,580.4 896.3,578.6C901.1,563.1 901.6,546.8 897.6,531C897.1,529.1 894.2,529.9 894.7,531.8Z" style="fill:rgb(22,22,22);fill-rule:nonzero;"/>
                </g>
            </g>
            <g>
                <g>
                    <path d="M894.1,532C894.8,539.6 895.2,547.1 895.4,554.7C895.6,562 896.1,569.5 893.7,576.5C893.1,578.3 896,579.1 896.6,577.3C898.9,570.6 898.6,563.6 898.5,556.6C898.3,548.4 897.9,540.2 897.2,532C896.9,530.1 893.9,530.1 894.1,532Z" style="fill:rgb(22,22,22);fill-rule:nonzero;"/>
                </g>
            </g>
            <g>
                <g>
                    <path d="M898,531.9C900.2,533.5 899.8,541.4 899.9,543.9C900,547.3 900,550.6 899.8,554C899.4,561.2 898.3,568.4 896.5,575.4C896,577.3 898.9,578.1 899.4,576.2C901.6,567.4 902.8,558.5 902.9,549.4C902.9,544.8 902.7,540.2 902.2,535.6C901.9,532.9 901.7,530.9 899.5,529.3C897.9,528.2 896.4,530.8 898,531.9Z" style="fill:rgb(22,22,22);fill-rule:nonzero;"/>
                </g>
            </g>
            <g>
                <g>
                    <path d="M897.3,531.1C898.6,539.2 899,547.3 898.4,555.4C898.3,557.3 901.3,557.3 901.4,555.4C902,547 901.6,538.6 900.2,530.3C899.9,528.4 897,529.2 897.3,531.1Z" style="fill:rgb(22,22,22);fill-rule:nonzero;"/>
                </g>
            </g>
            <g>
                <g>
                    <path d="M890,531.7C893.3,542.8 894.6,554.3 893.7,565.9C893.5,568.9 890.4,583 898.5,579.2C901.5,577.8 901.8,574.3 902.1,571.5C902.7,565.8 902.8,560.1 902.8,554.4C902.8,545.4 904,534.5 898.8,526.7C897.7,525.1 895.1,526.6 896.2,528.2C900.5,534.7 899.7,543.1 899.8,550.6C899.8,554.7 899.8,558.8 899.7,562.9C899.6,564.8 899.5,566.7 899.4,568.6C899.3,569.6 898.7,577.8 895.8,574.4C895.8,574.4 896.4,570 896.5,569.5C896.7,567.7 896.9,565.8 897,564C897.2,560.3 897.2,556.6 897,553C896.6,545.5 895.2,538.1 893.1,530.9C892.4,529 889.5,529.8 890,531.7Z" style="fill:rgb(22,22,22);fill-rule:nonzero;"/>
                </g>
            </g>
            <g>
                <g>
                    <path d="M893.7,531.3C894.3,536.1 894.8,540.9 895.4,545.6C895.6,547.5 898.6,547.5 898.4,545.6C897.8,540.8 897.3,536 896.7,531.3C896.4,529.4 893.4,529.4 893.7,531.3Z" style="fill:rgb(22,22,22);fill-rule:nonzero;"/>
                </g>
            </g>
            <g>
                <g>
                    <path d="M890.7,528.4C892.8,533.8 894.5,539.4 895.6,545.1C896,547 898.9,546.2 898.5,544.3C897.4,538.6 895.8,533 893.6,527.6C892.9,525.8 890,526.6 890.7,528.4Z" style="fill:rgb(22,22,22);fill-rule:nonzero;"/>
                </g>
            </g>
            <path d="M1143.8,335.9C1140,335.9 1139,356.1 1133.6,373.3C1128.9,388.2 1120.9,400.4 1086.9,433.6C1039.7,479.6 1015.3,502.9 975.1,523.1C958.1,531.6 943.2,537.1 932.8,540.6C929.5,543.5 918.6,552.3 902.7,552.3C894.9,552.3 888.6,550.2 884.7,548.4C884,548.8 881.8,550.1 880.8,552.8C879.7,555.7 880.5,559.1 882.7,561.6C881.9,562.3 879.7,564.7 879.8,567.9C879.9,571.6 882.8,573.9 883.7,574.7C887.1,577.5 892.9,577.6 904.1,577.6L916.3,577.6C918.2,575.6 921,572.5 924.1,568.4C931.5,558.4 932.3,553.4 937.7,548.9C943.9,543.8 951.1,543.6 954.2,543.1C980.9,538.5 1014,516.5 1032.5,504.2C1062,484.6 1078.8,466.1 1112.3,429.3C1112.3,429.3 1130.1,409.7 1143.9,379.7C1146,375.2 1150.5,364.7 1149.2,351.5C1148.5,345.2 1146.4,336 1143.8,335.9Z" style="fill:rgb(109,108,108);fill-opacity:0.15;fill-rule:nonzero;"/>
        </g>
        <g id="head" transform="matrix(1,0,0,1,-79.5,-1.07256)">
            <path d="M1101.7,235C1102.5,259.2 1101.6,272.9 1105.7,296C1107.6,306.8 1109.9,315.5 1111.6,321.3C1101.3,324.6 1084,328.6 1062.8,326.3C1048.9,324.8 1037.6,321.1 1029.5,317.7C1033.2,310.7 1037.7,300.4 1040.2,287.4C1042.4,276.1 1042.4,266.3 1041.9,258.9C1031.5,254.7 1021.1,250.4 1010.7,246.2C1009.8,240.9 1009,235.6 1008.1,230.4C1005.2,229.5 1002.2,228.6 999.3,227.7C1003.2,221.8 1009.3,212.5 1016.5,200.9C1030,179 1030.8,175.6 1036.2,171.3C1050.8,159.5 1077.6,156.5 1091.5,168.6C1099.7,175.8 1100.5,195.6 1101.7,235Z" style="fill:white;fill-rule:nonzero;stroke:rgb(22,22,22);stroke-width:2px;stroke-linejoin:miter;stroke-miterlimit:10;"/>
            <g>
                <g>
                    <path d="M999.1,229.4C1004.6,231 1010.2,232 1015.9,232.6C1017.8,232.8 1017.8,229.8 1015.9,229.6C1010.5,229 1005.1,228 999.9,226.5C998,226 997.2,228.9 999.1,229.4Z" style="fill:rgb(22,22,22);fill-rule:nonzero;"/>
                </g>
            </g>
            <g>
                <g>
                    <path d="M1008.1,186.1C1011.8,185.2 1015.8,187.2 1017.2,190.8C1017.9,192.6 1020.8,191.8 1020.1,190C1018.1,184.8 1012.8,181.9 1007.4,183.2C1005.4,183.7 1006.2,186.6 1008.1,186.1Z" style="fill:rgb(22,22,22);fill-rule:nonzero;"/>
                </g>
            </g>
            <g>
                <g>
                    <path d="M1030.6,195.6C1035.1,195.4 1039.2,198 1040.7,202.2C1041.3,204 1044.2,203.2 1043.6,201.4C1041.7,195.9 1036.5,192.2 1030.7,192.5C1028.7,192.7 1028.7,195.7 1030.6,195.6Z" style="fill:rgb(22,22,22);fill-rule:nonzero;"/>
                </g>
            </g>
            <g>
                <g>
                    <path d="M1031.6,208.3C1030.9,206.8 1031.2,205.5 1031.4,203.9C1031.7,203.5 1031.7,203.3 1031.4,203.5C1031.1,203.6 1031.1,203.8 1031.4,204.1C1031.5,204.8 1031.7,205.5 1031.8,206.2C1031.8,206.7 1031.6,207.7 1031.7,208.1C1031.9,208.3 1032.1,208.5 1032.3,208.7C1032.3,208.4 1032.4,208.1 1032.4,207.8C1032.6,206.3 1032.8,204.8 1033,203.2C1033.2,201.7 1030.8,201.2 1030.2,202.4C1029.7,203.4 1029.5,204.3 1029.5,205.4C1029.6,207.3 1032.6,207.3 1032.5,205.4C1032.5,204.8 1032.5,204.5 1032.8,203.9C1031.9,203.6 1030.9,203.4 1030,203.1C1029.8,204.9 1029.3,206.8 1029.3,208.6C1029.3,209.9 1030,211 1031.3,211.2C1034.6,211.7 1034.9,207.5 1034.7,205.2C1034.4,203.1 1032.8,198.6 1029.9,201C1027.4,203 1028,207.3 1029.1,209.8C1029.8,211.5 1032.4,210 1031.6,208.3Z" style="fill:rgb(22,22,22);fill-rule:nonzero;"/>
                </g>
            </g>
            <path d="M1030.6,176.2C1032.6,171.5 1036.6,164.1 1044.1,157.2C1046.7,154.8 1052.3,149.7 1059.8,147.2C1074,142.5 1092.5,148 1103.5,161.3C1114.3,174.3 1116.4,193.1 1109.1,209.2C1083,198.2 1056.8,187.2 1030.6,176.2Z" style="fill:rgb(209,1,76);fill-rule:nonzero;"/>
            <path d="M986.1,164.1C1026.6,180.4 1067.1,196.6 1107.5,212.9C1112.9,215.1 1115.2,206.4 1109.9,204.2C1069.4,187.9 1028.9,171.7 988.5,155.4C983.2,153.3 980.8,162 986.1,164.1Z" style="fill:rgb(22,22,22);fill-rule:nonzero;stroke:rgb(50,50,50);stroke-width:3px;"/>
            <path d="M1082.3,201C1074.2,201.8 1068.6,205.7 1062,210.4C1048.1,220.4 1050,225.9 1040.5,231.9C1025.4,241.5 1015.4,230.9 1001.7,240.5C990,248.7 987.5,263.1 987,266.5C986.5,269.7 984.8,282.8 992.9,294.2C999.9,304.1 1011.6,309 1012.8,307.5C1013.2,307 1012.6,305.2 1007.1,299C1008.7,300.9 1011.3,303.4 1015.1,305.1C1019.5,307.1 1024,307.5 1024.2,306.8C1024.4,306.3 1021.9,305.7 1020.5,303.2C1019.7,301.7 1019.6,300.2 1019.6,299C1022.6,302.3 1026.7,305.6 1031.4,305.5C1044.3,305 1053.4,279.1 1056.4,270.5C1066.1,242.7 1062,225 1074.6,217.6C1075.7,217 1080.7,214 1084.9,216C1090.3,218.5 1092.2,228.2 1088.9,233.5C1086,238 1080.1,237.9 1080.2,238.9C1080.4,240.2 1090.4,240.9 1099.9,236.7C1103.4,235.2 1106.2,233.9 1108.4,230.9C1112.1,225.6 1111.3,218.1 1109.1,213.3C1104.3,203 1091.1,200.1 1082.3,201Z" style="fill:rgb(22,22,22);fill-rule:nonzero;stroke:rgb(50,50,50);stroke-width:2px;stroke-linejoin:miter;stroke-miterlimit:10;"/>
            <path d="M1083.7,240.5C1081.9,240.2 1079.3,239.6 1079.3,239C1079.3,238.7 1080,238.4 1080,238.4C1080,238.3 1077.2,240.5 1074.4,240.2C1073.1,240 1072.1,239.3 1071.5,238.7C1073.7,249.6 1075.6,262.8 1075.7,278C1075.9,297.3 1073.4,313.8 1070.6,326.5C1076.6,327.2 1085.2,327.4 1095.1,325.3C1101.3,324 1106.6,322 1110.7,320.1C1104.7,301.7 1102.9,287.7 1102.4,278.4C1102.1,274 1101.8,263.7 1101.6,258.7C1101.3,249.5 1101,241.9 1100.9,236.8C1100,237.2 1098.6,237.9 1096.8,238.6C1094.4,239.6 1089.4,241.4 1083.7,240.5Z" style="fill:rgb(109,108,108);fill-opacity:0.22;fill-rule:nonzero;"/>
            <path d="M1076.3,146.3C1086.6,151.3 1092.5,162.1 1091.1,172.7C1089.4,185.3 1078.2,191.2 1077.1,191.8C1088.3,196.3 1099.5,200.7 1110.7,205.2C1111.6,202.6 1112.6,199 1113.1,194.5C1114.5,180.3 1108.7,169.7 1107.4,167.6C1105.4,164.2 1098.3,152.7 1084.3,148.1C1081.2,146.9 1078.4,146.5 1076.3,146.3Z" style="fill:rgb(50,22,147);fill-rule:nonzero;"/>
        </g>
    </g>
</svg>
