<svg xmlns="http://www.w3.org/2000/svg" viewBox="0 0 22 21.95" height="15"><path d="M18.84,3.24a2.44,2.44,0,0,0-3.46,0L11.93,6.7a1.24,1.24,0,0,1-1.73,0A1.22,1.22,0,0,1,10.2,5l3.45-3.46a4.89,4.89,0,0,1,6.92,6.91l-3.46,3.46a1.22,1.22,0,0,1-1.73,0,1.24,1.24,0,0,1,0-1.73L18.84,6.7A2.46,2.46,0,0,0,18.84,3.24ZM6.62,10.17a1.24,1.24,0,0,1,0,1.73L3.16,15.36a2.44,2.44,0,1,0,3.46,3.45l3.45-3.45a1.22,1.22,0,0,1,1.73,1.73L8.35,20.54a4.89,4.89,0,0,1-6.92-6.91l3.46-3.46A1.22,1.22,0,0,1,6.62,10.17Z" transform="translate(0 -0.03)" fill="currentColor"/><path d="M7.33,0A1.22,1.22,0,0,1,8.56,1.25V2.47a1.23,1.23,0,0,1-2.45,0V1.25A1.22,1.22,0,0,1,7.33,0ZM1.58,1.61a1.22,1.22,0,0,1,1.73,0L4.53,2.83a1.22,1.22,0,0,1,0,1.73,1.24,1.24,0,0,1-1.73,0L1.58,3.33A1.21,1.21,0,0,1,1.58,1.61ZM0,7.36A1.22,1.22,0,0,1,1.22,6.14H2.44a1.22,1.22,0,1,1,0,2.44H1.22A1.22,1.22,0,0,1,0,7.36Zm18.33,6.11a1.23,1.23,0,0,1,1.23-1.22h1.22a1.22,1.22,0,0,1,0,2.44H19.56A1.22,1.22,0,0,1,18.33,13.47Zm-.86,2.8a1.24,1.24,0,0,1,1.73,0l1.22,1.23a1.22,1.22,0,0,1-1.73,1.72L17.47,18A1.22,1.22,0,0,1,17.47,16.27Zm-2.8.87a1.22,1.22,0,0,1,1.22,1.22v1.22a1.23,1.23,0,0,1-2.45,0V18.36A1.22,1.22,0,0,1,14.67,17.14Z" transform="translate(0 -0.03)" fill="currentColor"/></svg>