<svg fill="none" height="24" viewBox="0 0 24 24" width="24" xmlns="http://www.w3.org/2000/svg"><path clip-rule="evenodd" d="M18.4142 5.62843C17.6332 4.84738 16.3668 4.84738 15.5858 5.62843L12.7574 8.45685C12.3668 8.84738 11.7337 8.84738 11.3431 8.45685C10.9526 8.06633 10.9526 7.43316 11.3431 7.04264L14.1716 4.21421C15.7337 2.65211 18.2663 2.65211 19.8284 4.21421C21.3905 5.77631 21.3905 8.30897 19.8284 9.87107L17 12.6995C16.6095 13.09 15.9763 13.09 15.5858 12.6995C15.1953 12.309 15.1953 11.6758 15.5858 11.2853L18.4142 8.45685C19.1953 7.6758 19.1953 6.40947 18.4142 5.62843ZM8.41421 11.3005C8.80474 11.691 8.80474 12.3242 8.41421 12.7147L5.58579 15.5431C4.80474 16.3242 4.80474 17.5905 5.58579 18.3716C6.36684 19.1526 7.63317 19.1526 8.41421 18.3716L11.2426 15.5431C11.6332 15.1526 12.2663 15.1526 12.6569 15.5431C13.0474 15.9337 13.0474 16.5668 12.6569 16.9574L9.82843 19.7858C8.26633 21.3479 5.73367 21.3479 4.17157 19.7858C2.60948 18.2237 2.60948 15.691 4.17157 14.1289L7 11.3005C7.39052 10.91 8.02369 10.91 8.41421 11.3005Z" fill="currentColor"/><path clip-rule="evenodd" d="M9 3C9.55229 3 10 3.44772 10 4L10 5C10 5.55228 9.55228 6 9 6C8.44771 6 8 5.55228 8 5L8 4C8 3.44771 8.44772 3 9 3ZM4.29289 4.2929C4.68341 3.90237 5.31658 3.90237 5.7071 4.29289L6.70711 5.29289C7.09764 5.68341 7.09764 6.31658 6.70712 6.7071C6.3166 7.09763 5.68344 7.09763 5.29291 6.70711L4.2929 5.70711C3.90237 5.31659 3.90237 4.68342 4.29289 4.2929ZM3 9C3 8.44771 3.44772 8 4 8L4.99999 8C5.55227 8 5.99999 8.44772 5.99999 9C5.99999 9.55229 5.55227 10 4.99998 10L4 10C3.44771 10 3 9.55228 3 9ZM18 14C18 13.4477 18.4477 13 19 13L20 13C20.5523 13 21 13.4477 21 14C21 14.5523 20.5523 15 20 15L19 15C18.4477 15 18 14.5523 18 14ZM17.2929 16.2929C17.6834 15.9024 18.3166 15.9024 18.7071 16.2929L19.7071 17.2929C20.0976 17.6834 20.0976 18.3166 19.7071 18.7071C19.3166 19.0976 18.6834 19.0976 18.2929 18.7071L17.2929 17.7071C16.9024 17.3166 16.9024 16.6834 17.2929 16.2929ZM15 17C15.5523 17 16 17.4477 16 18V19C16 19.5523 15.5523 20 15 20C14.4477 20 14 19.5523 14 19V18C14 17.4477 14.4477 17 15 17Z"  fill="currentColor"/></svg>